<?xml version="1.0" standalone="no"?><!DOCTYPE svg PUBLIC "-//W3C//DTD SVG 1.1//EN" "http://www.w3.org/Graphics/SVG/1.1/DTD/svg11.dtd"><svg t="1734184447834" class="icon" viewBox="0 0 1024 1024" version="1.1" xmlns="http://www.w3.org/2000/svg" p-id="2045" xmlns:xlink="http://www.w3.org/1999/xlink" width="200" height="200"><path d="M347.022222 108.088889a233.244444 233.244444 0 1 1 329.955556 329.784889l-144.839111 144.839111a28.444444 28.444444 0 0 1-40.277334 0L347.079111 437.873778a233.244444 233.244444 0 0 1 0-329.841778z m289.678222 40.163555A176.355556 176.355556 0 1 0 387.299556 397.653333L512 522.353778l124.700444-124.700445a176.355556 176.355556 0 0 0 0-249.400889z" p-id="2046"></path><path d="M512 244.622222a28.444444 28.444444 0 1 0 0 56.888889 28.444444 28.444444 0 0 0 0-56.888889z m-85.333333 28.444445a85.333333 85.333333 0 1 1 170.666666 0 85.333333 85.333333 0 0 1-170.666666 0zM512 711.111111a28.444444 28.444444 0 0 1 28.444444 28.444445v85.333333a28.444444 28.444444 0 0 1-56.888888 0V739.555556a28.444444 28.444444 0 0 1 28.444444-28.444445z" p-id="2047"></path><path d="M323.754667 327.964444a28.444444 28.444444 0 0 1-11.719111 38.456889L128.853333 464.213333A28.444444 28.444444 0 0 0 113.777778 489.244444v242.517334a28.444444 28.444444 0 0 0 16.440889 25.770666l321.649777 150.129778a142.222222 142.222222 0 0 0 120.263112 0l321.649777-150.129778a28.444444 28.444444 0 0 0 16.440889-25.770666V489.244444a28.444444 28.444444 0 0 0-15.075555-25.088l-183.182223-97.735111a28.444444 28.444444 0 0 1 26.737778-50.176l183.182222 97.678223c27.875556 14.848 45.226667 43.804444 45.226667 75.320888v242.517334a85.333333 85.333333 0 0 1-49.265778 77.368889L596.195556 959.146667a199.111111 199.111111 0 0 1-168.391112 0l-321.649777-150.129778A85.333333 85.333333 0 0 1 56.888889 731.761778V489.244444a85.333333 85.333333 0 0 1 45.169778-75.320888l183.182222-97.678223a28.444444 28.444444 0 0 1 38.513778 11.719111z" p-id="2048"></path><path d="M427.804444 646.314667L73.329778 480.881778l24.007111-51.541334 354.531555 165.432889a142.222222 142.222222 0 0 0 120.263112 0l354.531555-165.432889 24.007111 51.541334-354.417778 165.432889a199.111111 199.111111 0 0 1-168.448 0zM901.916444 65.194667a28.444444 28.444444 0 0 1 0 40.277333l-85.333333 85.333333a28.444444 28.444444 0 0 1-40.277333-40.277333l85.333333-85.333333a28.444444 28.444444 0 0 1 40.277333 0zM824.888889 284.444444a28.444444 28.444444 0 0 1 28.444444-28.444444h56.888889a28.444444 28.444444 0 0 1 0 56.888889h-56.888889a28.444444 28.444444 0 0 1-28.444444-28.444445z" p-id="2049"></path><path d="M199.111111 594.147556V512h56.888889v82.147556c0 36.977778-13.767111 72.192-37.944889 99.214222l61.724445-10.296889a28.444444 28.444444 0 0 1 33.109333 28.046222v28.444445a142.222222 142.222222 0 0 0 56.888889-113.777778v-28.444445h56.888889v28.444445a199.111111 199.111111 0 0 1-79.644445 159.288889 56.888889 56.888889 0 0 1-90.794666-40.391111l-56.775112 9.443555c-50.062222 8.305778-77.653333-56.149333-36.977777-86.584889 23.04-17.351111 36.636444-44.544 36.636444-73.386666z" p-id="2050"></path></svg>