<?xml version="1.0" standalone="no"?><!DOCTYPE svg PUBLIC "-//W3C//DTD SVG 1.1//EN" "http://www.w3.org/Graphics/SVG/1.1/DTD/svg11.dtd"><svg t="1734184454490" class="icon" viewBox="0 0 1024 1024" version="1.1" xmlns="http://www.w3.org/2000/svg" p-id="2739" xmlns:xlink="http://www.w3.org/1999/xlink" width="200" height="200"><path d="M103.196444 242.744889A199.111111 199.111111 0 0 1 301.909333 56.888889h363.292445a199.111111 199.111111 0 0 1 198.712889 185.856l34.133333 512A199.111111 199.111111 0 0 1 699.335111 967.111111H267.776a199.111111 199.111111 0 0 1-198.712889-212.366222l34.133333-512zM301.909333 113.777778a142.222222 142.222222 0 0 0-141.937777 132.778666l-34.133334 512A142.222222 142.222222 0 0 0 267.776 910.222222h431.559111a142.222222 142.222222 0 0 0 141.937778-151.665778l-34.133333-512A142.222222 142.222222 0 0 0 665.201778 113.777778H301.909333z" p-id="2740"></path><path d="M113.777778 256a28.444444 28.444444 0 0 1 28.444444-28.444444h682.666667a28.444444 28.444444 0 0 1 0 56.888888h-682.666667a28.444444 28.444444 0 0 1-28.444444-28.444444zM113.777778 369.777778a28.444444 28.444444 0 0 1 28.444444-28.444445h682.666667a28.444444 28.444444 0 0 1 0 56.888889h-682.666667a28.444444 28.444444 0 0 1-28.444444-28.444444z" p-id="2741"></path><path d="M629.304889 341.560889a28.444444 28.444444 0 0 1 24.689778 31.744l-19.626667 157.013333a34.304 34.304 0 1 0 68.152889 0l-19.626667-157.013333a28.444444 28.444444 0 1 1 56.433778-7.054222l19.626667 157.013333a91.192889 91.192889 0 1 1-181.020445 0l19.626667-157.013333a28.444444 28.444444 0 0 1 31.744-24.689778z" p-id="2742"></path><path d="M823.523556 250.88a28.444444 28.444444 0 0 1 38.855111 10.353778c76.117333 131.925333 110.705778 272.668444 103.765333 394.410666-6.997333 121.400889-55.808 227.726222-150.641778 282.453334-94.833778 54.727111-211.285333 43.918222-319.943111-10.808889-108.885333-54.840889-213.504-155.136-289.678222-287.004445-67.470222-116.963556-102.229333-240.753778-104.448-352.085333a28.444444 28.444444 0 1 1 56.888889-1.137778c1.991111 100.693333 33.564444 215.210667 96.824889 324.778667 71.452444 123.676444 168.391111 215.438222 266.012444 264.647111 97.905778 49.322667 193.024 54.385778 265.898667 12.344889 72.817778-42.097778 116.053333-126.976 122.311111-236.487111 6.200889-109.112889-24.860444-238.933333-96.256-362.666667a28.444444 28.444444 0 0 1 10.410667-38.855111z" p-id="2743"></path></svg>