<?xml version="1.0" standalone="no"?><!DOCTYPE svg PUBLIC "-//W3C//DTD SVG 1.1//EN" "http://www.w3.org/Graphics/SVG/1.1/DTD/svg11.dtd"><svg t="1734184459913" class="icon" viewBox="0 0 1024 1024" version="1.1" xmlns="http://www.w3.org/2000/svg" p-id="3256" xmlns:xlink="http://www.w3.org/1999/xlink" width="200" height="200"><path d="M562.631111 388.323556c-82.488889 56.035556-179.029333 135.964444-253.383111 210.375111-37.262222 37.262222-61.44 65.592889-76.401778 87.495111-15.189333 22.186667-19.456 35.555556-20.081778 43.235555-0.568889 6.257778 0.967111 10.808889 5.575112 16.952889 4.096 5.518222 8.931556 10.126222 15.530666 16.497778 3.015111 2.901333 6.428444 6.144 10.24 10.012444 3.925333 3.868444 7.168 7.281778 10.069334 10.24 6.371556 6.656 10.979556 11.434667 16.497777 15.587556 6.144 4.551111 10.695111 6.087111 16.896 5.575111 7.736889-0.682667 21.162667-4.892444 43.292445-20.081778 21.902222-15.018667 50.232889-39.139556 87.495111-76.401777 74.353778-74.353778 154.339556-170.837333 210.375111-253.44 28.16-41.415111 49.493333-78.222222 61.212444-106.382223a125.724444 125.724444 0 0 0 9.272889-30.151111c-6.826667 0.853333-16.839111 3.697778-30.151111 9.272889-28.16 11.776-64.967111 33.052444-106.382222 61.212445z m132.096-127.203556c14.108444-1.479111 33.109333-0.056889 47.217778 14.051556 14.051556 14.051556 15.416889 32.995556 13.994667 47.217777-1.479111 14.791111-6.656 31.118222-13.539556 47.559111-13.880889 33.28-37.603556 73.728-66.56 116.394667-58.140444 85.674667-140.458667 184.888889-217.315556 261.688889-38.343111 38.4-69.461333 65.308444-95.516444 83.114667-25.770667 17.635556-48.753778 27.989333-70.542222 29.809777a79.018667 79.018667 0 0 1-55.808-16.668444c-9.557333-7.111111-18.944-16.896-26.510222-24.746667a469.219556 469.219556 0 0 0-6.257778-6.428444l-6.371556-6.257778c-7.850667-7.509333-17.635556-16.896-24.746666-26.453333a79.075556 79.075556 0 0 1-16.725334-55.751111c1.877333-21.845333 12.231111-44.828444 29.866667-70.656 17.806222-25.998222 44.714667-57.116444 83.057778-95.516445C345.884444 481.678222 445.098667 399.36 530.773333 341.219556c42.666667-28.956444 83.114667-52.679111 116.394667-66.56 16.497778-6.940444 32.768-12.060444 47.616-13.539556z" p-id="3257"></path><path d="M313.344 843.320889a28.444444 28.444444 0 0 1 9.728 39.025778l-31.004444 51.541333c-10.581333 17.578667-33.166222 38.229333-64.284445 31.744-25.6-5.290667-61.44-21.504-105.244444-63.260444-42.154667-40.277333-57.969778-78.848-63.374223-105.585778-5.802667-28.899556 10.24-52.451556 27.192889-65.536l45.568-35.384889a28.444444 28.444444 0 1 1 34.872889 44.942222l-45.624889 35.384889a19.399111 19.399111 0 0 0-5.688889 6.485333c-0.682667 1.536-0.625778 2.332444-0.568888 2.844445 3.128889 15.473778 13.255111 43.52 46.933333 75.662222 37.319111 35.555556 63.601778 45.738667 76.8 48.64a15.587556 15.587556 0 0 0 4.664889-5.233778l31.004444-51.541333a28.444444 28.444444 0 0 1 39.025778-9.728z" p-id="3258"></path><path d="M627.029333 141.141333a147.512889 147.512889 0 0 0-226.872889 22.072889A137.557333 137.557333 0 0 1 293.546667 222.435556a147.512889 147.512889 0 0 0-135.736889 191.317333c13.312 42.894222 22.755556 92.501333 15.189333 141.084444a254.065778 254.065778 0 0 0 17.066667 137.898667l-52.394667 22.186667a310.954667 310.954667 0 0 1-20.878222-168.789334c5.632-36.295111-1.137778-76.288-13.312-115.484444a204.401778 204.401778 0 0 1 188.074667-265.102222 80.782222 80.782222 0 0 0 61.44-34.133334 204.401778 204.401778 0 0 1 314.254222-30.492444l0.625778 0.568889c0.170667 0.113778 1.365333 0.967111 3.982222 0.910222 2.844444 0 4.551111-1.137778 4.949333-1.536a169.244444 169.244444 0 0 1 239.331556 239.331556c-0.398222 0.398222-1.479111 2.048-1.536 5.006222-0.056889 2.56 0.739556 3.754667 0.853333 3.925333l0.682667 0.625778a204.401778 204.401778 0 0 1-30.492445 314.254222 80.782222 80.782222 0 0 0-34.190222 61.44 204.401778 204.401778 0 0 1-265.102222 188.074667c-39.196444-12.174222-79.189333-18.944-115.484445-13.312a310.727111 310.727111 0 0 1-183.694222-27.648l24.974222-51.143111a253.838222 253.838222 0 0 0 149.959111 22.584889c48.64-7.566222 98.247111 1.877333 141.084445 15.189333a147.512889 147.512889 0 0 0 191.374222-135.736889 137.557333 137.557333 0 0 1 59.278222-106.609778 147.569778 147.569778 0 0 0 22.072889-226.816l-0.512-0.568889a62.122667 62.122667 0 0 1-17.692444-45.169777c0.227556-15.36 5.802667-31.914667 18.204444-44.316445a112.355556 112.355556 0 0 0-158.890666-158.890667 64.170667 64.170667 0 0 1-44.316445 18.204445c-15.36 0.227556-32.426667-4.835556-45.226667-17.692445l-0.455111-0.512z" p-id="3259"></path><path d="M512 170.666667a28.444444 28.444444 0 0 1 28.444444 28.444444v56.888889a28.444444 28.444444 0 0 1-56.888888 0v-56.888889A28.444444 28.444444 0 0 1 512 170.666667zM853.333333 512a28.444444 28.444444 0 0 1-28.444444 28.444444h-56.888889a28.444444 28.444444 0 0 1 0-56.888888h56.888889a28.444444 28.444444 0 0 1 28.444444 28.444444zM271.701333 315.904a28.444444 28.444444 0 0 1 38.172445 12.686222l28.444444 56.888889a28.444444 28.444444 0 1 1-50.858666 25.486222l-28.444445-56.888889a28.444444 28.444444 0 0 1 12.686222-38.172444zM708.096 752.298667a28.444444 28.444444 0 0 1-38.115556 12.686222l-56.888888-28.444445a28.444444 28.444444 0 1 1 25.429333-50.858666l56.888889 28.444444a28.444444 28.444444 0 0 1 12.686222 38.115556z" p-id="3260"></path></svg>