<?xml version="1.0" standalone="no"?><!DOCTYPE svg PUBLIC "-//W3C//DTD SVG 1.1//EN" "http://www.w3.org/Graphics/SVG/1.1/DTD/svg11.dtd"><svg t="1734184471875" class="icon" viewBox="0 0 1024 1024" version="1.1" xmlns="http://www.w3.org/2000/svg" p-id="4471" xmlns:xlink="http://www.w3.org/1999/xlink" width="200" height="200"><path d="M871.992889 319.829333A28.444444 28.444444 0 0 1 881.777778 341.333333v312.888889A85.333333 85.333333 0 0 1 796.444444 739.555556H318.919111a199.111111 199.111111 0 0 1-165.717333-88.689778L83.285333 546.019556A85.333333 85.333333 0 0 1 142.222222 414.151111l707.128889-101.034667a28.444444 28.444444 0 0 1 22.641778 6.656z m-47.104 54.328889L150.300444 470.471111a28.444444 28.444444 0 0 0-19.683555 43.918222l69.973333 104.903111A142.222222 142.222222 0 0 0 318.862222 682.666667H796.444444a28.444444 28.444444 0 0 0 28.444445-28.444445V374.158222z" p-id="4472"></path><path d="M360.789333 485.034667a28.444444 28.444444 0 0 1 35.953778 17.976889l28.444445 85.333333a28.444444 28.444444 0 0 1-53.930667 17.976889l-28.444445-85.333334a28.444444 28.444444 0 0 1 17.976889-35.953777zM559.900444 485.034667a28.444444 28.444444 0 0 1 35.953778 17.976889l28.444445 85.333333a28.444444 28.444444 0 1 1-53.930667 17.976889l-28.444444-85.333334a28.444444 28.444444 0 0 1 17.976888-35.953777zM477.866667 325.802667a170.666667 170.666667 0 0 1 5.688889 39.651555l85.333333-12.231111v57.457778l-227.555556 32.540444V385.706667l85.560889-12.231111A28.842667 28.842667 0 0 1 426.666667 369.777778a113.777778 113.777778 0 1 0-227.555556 0c0 12.401778 1.991111 24.348444 5.632 35.498666L284.444444 393.898667v57.457777l-118.897777 16.952889-14.848-45.340444A170.666667 170.666667 0 0 1 369.777778 208.839111V199.111111A142.222222 142.222222 0 0 1 512 56.888889h113.777778a142.222222 142.222222 0 0 1 142.222222 142.222222v183.182222l-142.222222 20.309334v-57.457778l85.333333-12.231111V199.111111A85.333333 85.333333 0 0 0 625.777778 113.777778H512a85.333333 85.333333 0 0 0-85.333333 85.333333v43.463111a170.666667 170.666667 0 0 1 51.2 83.228445z" p-id="4473"></path><path d="M824.888889 284.444444A142.222222 142.222222 0 0 1 967.111111 142.222222a28.444444 28.444444 0 0 1 0 56.888889A85.333333 85.333333 0 0 0 881.777778 284.444444v56.888889a28.444444 28.444444 0 0 1-56.888889 0V284.444444zM768 711.111111a28.444444 28.444444 0 0 1 28.444444-28.444444c47.559111 0 84.081778 11.946667 111.274667 32.369777 27.079111 20.252444 42.382222 47.047111 50.801778 72.419556 8.419556 25.144889 10.353778 49.777778 10.353778 67.697778 0 8.988444-0.512 16.554667-1.024 21.959111-1.706667 18.318222-15.473778 33.109333-33.848889 33.109333H853.333333a28.444444 28.444444 0 0 1 0-56.888889h58.652445a158.72 158.72 0 0 0-7.395556-47.900444 90.055111 90.055111 0 0 0-31.004444-44.942222C858.112 748.999111 834.218667 739.555556 796.444444 739.555556a28.444444 28.444444 0 0 1-28.444444-28.444445z m-398.222222 170.666667A28.444444 28.444444 0 0 1 398.222222 853.333333h312.888889a28.444444 28.444444 0 0 1 0 56.888889H398.222222a28.444444 28.444444 0 0 1-28.444444-28.444444z" p-id="4474"></path><path d="M796.444444 853.333333a28.444444 28.444444 0 1 0 0 56.888889 28.444444 28.444444 0 0 0 0-56.888889z m-85.333333 28.444445a85.333333 85.333333 0 1 1 170.666667 0 85.333333 85.333333 0 0 1-170.666667 0zM129.479111 799.459556a28.444444 28.444444 0 0 1 38.172445 12.686222l12.743111 25.486222a28.444444 28.444444 0 0 0 25.429333 15.701333H256a28.444444 28.444444 0 0 1 0 56.888889h-50.176a85.333333 85.333333 0 0 1-76.344889-47.217778l-12.686222-25.372444a28.444444 28.444444 0 0 1 12.686222-38.172444z" p-id="4475"></path><path d="M312.888889 853.333333a28.444444 28.444444 0 1 0 0 56.888889 28.444444 28.444444 0 0 0 0-56.888889z m-85.333333 28.444445a85.333333 85.333333 0 1 1 170.666666 0 85.333333 85.333333 0 0 1-170.666666 0z" p-id="4476"></path></svg>