<?xml version="1.0" standalone="no"?><!DOCTYPE svg PUBLIC "-//W3C//DTD SVG 1.1//EN" "http://www.w3.org/Graphics/SVG/1.1/DTD/svg11.dtd"><svg t="1734184475648" class="icon" viewBox="0 0 1024 1024" version="1.1" xmlns="http://www.w3.org/2000/svg" p-id="4820" xmlns:xlink="http://www.w3.org/1999/xlink" width="200" height="200"><path d="M425.642667 93.127111a28.444444 28.444444 0 0 1-19.854223 34.986667 399.189333 399.189333 0 0 0-269.368888 251.164444 28.444444 28.444444 0 0 1-53.646223-19.000889 456.078222 456.078222 0 0 1 307.882667-287.004444 28.444444 28.444444 0 0 1 34.986667 19.854222z m505.230222 505.230222a28.444444 28.444444 0 0 1 19.911111 34.986667 456.078222 456.078222 0 0 1-287.061333 307.882667 28.444444 28.444444 0 0 1-19.000889-53.646223 399.189333 399.189333 0 0 0 251.164444-269.368888 28.444444 28.444444 0 0 1 34.986667-19.854223zM356.579556 220.728889a198.712889 198.712889 0 0 1 156.216888-57.742222l-4.380444 56.718222a141.824 141.824 0 0 0-111.616 41.244444L155.420444 502.328889a142.222222 142.222222 0 0 0 0 201.102222l160.938667 160.938667a142.222222 142.222222 0 0 0 201.102222 0l241.379556-241.379556c30.549333-30.549333 44.373333-71.566222 41.187555-111.616l56.775112-4.380444a198.712889 198.712889 0 0 1-57.742223 156.216889l-241.379555 241.379555a199.111111 199.111111 0 0 1-281.6 0l-160.881778-160.938666a199.111111 199.111111 0 0 1 0-281.6L356.579556 220.728889z" p-id="4821"></path><path d="M505.742222 572.188444a28.444444 28.444444 0 0 1 40.163556 0l80.440889 80.440889a28.444444 28.444444 0 1 1-40.220445 40.220445L505.742222 612.408889a28.444444 28.444444 0 0 1 0-40.220445zM385.024 692.849778a28.444444 28.444444 0 0 1 40.220444 0l80.440889 80.440889a28.444444 28.444444 0 0 1-40.220444 40.220444l-80.440889-80.440889a28.444444 28.444444 0 0 1 0-40.220444zM770.389333 88.519111c42.097778-42.154667 110.478222-42.154667 152.632889 0l8.248889 8.248889c42.154667 42.154667 42.154667 110.478222 0 152.632889a51.029333 51.029333 0 0 0-13.482667 48.241778l9.159112 37.262222a176.014222 176.014222 0 0 1-46.478223 166.456889l-35.043555 34.986666-17.464889-7.111111 10.752-26.339555-10.752 26.339555h-0.113778l-0.113778-0.056889-0.284444-0.170666-0.967111-0.398222a236.714667 236.714667 0 0 1-13.824-6.826667 447.772444 447.772444 0 0 1-38.684445-23.438222c-33.052444-22.186667-79.872-58.424889-136.988444-115.484445-57.116444-57.173333-93.354667-103.992889-115.484445-137.045333a448.398222 448.398222 0 0 1-23.552-38.684445 236.828444 236.828444 0 0 1-6.826666-13.824l-0.341334-0.967111-0.170666-0.284444v-0.113778l-0.056889-0.113778 26.339555-10.752-26.339555 10.808889-7.111111-17.578666 34.986666-34.986667a176.014222 176.014222 0 0 1 166.456889-46.478222l37.262223 9.102222a51.029333 51.029333 0 0 0 48.241777-13.425778zM551.594667 186.595556c3.982222 7.054222 9.557333 16.327111 17.066666 27.534222 20.024889 29.866667 53.873778 73.841778 108.544 128.455111 54.613333 54.613333 98.588444 88.519111 128.455111 108.487111 11.207111 7.566222 20.48 13.084444 27.534223 17.066667l7.054222-6.997334a119.125333 119.125333 0 0 0 31.459555-112.64l-9.102222-37.262222a107.918222 107.918222 0 0 1 28.444445-102.058667 51.029333 51.029333 0 0 0 0-72.192l-8.248889-8.248888a51.029333 51.029333 0 0 0-72.248889 0c-26.624 26.680889-65.308444 37.489778-102.001778 28.444444l-37.262222-9.102222a119.125333 119.125333 0 0 0-112.64 31.459555l-7.054222 7.054223zM398.222222 426.666667a28.444444 28.444444 0 1 0 0 56.888889 28.444444 28.444444 0 0 0 0-56.888889zM312.888889 455.111111a85.333333 85.333333 0 1 1 170.666667 0 85.333333 85.333333 0 0 1-170.666667 0z" p-id="4822"></path></svg>