<?xml version="1.0" standalone="no"?><!DOCTYPE svg PUBLIC "-//W3C//DTD SVG 1.1//EN" "http://www.w3.org/Graphics/SVG/1.1/DTD/svg11.dtd"><svg t="1734184452835" class="icon" viewBox="0 0 1024 1024" version="1.1" xmlns="http://www.w3.org/2000/svg" p-id="2567" xmlns:xlink="http://www.w3.org/1999/xlink" width="200" height="200"><path d="M683.804444 118.727111c-0.341333-0.227556-1.137778-0.341333-2.048 0.113778a384.568889 384.568889 0 0 1-168.846222 45.283555l-1.820444-56.832a327.68 327.68 0 0 0 143.815111-38.570666c17.066667-9.102222 37.888-9.671111 55.580444-0.284445 47.047111 24.974222 97.109333 43.804444 148.992 55.978667l49.038223 10.183111c12.572444 2.56 24.007111 9.216 32.426666 18.887111 18.090667 18.488889 30.72 43.804444 39.253334 70.371556 8.874667 27.306667 14.108444 57.912889 15.928888 88.348444 3.640889 58.993778-5.006222 124.131556-30.72 165.148445-1.308444 2.332444-2.275556 4.266667-3.413333 6.485333a474.453333 474.453333 0 0 1-3.242667 6.030222 116.280889 116.280889 0 0 1-10.069333 16.042667 57.116444 57.116444 0 0 1-45.112889 23.495111 77.937778 77.937778 0 0 1-25.6-4.152889 227.555556 227.555556 0 0 1-9.102222-3.185778l-0.455111-0.113777-6.599111-2.332445a51.484444 51.484444 0 0 0-3.413334-1.024l23.324445 334.222222 0.056889 1.991111c0 15.701333-4.664889 29.923556-14.904889 41.187556a73.386667 73.386667 0 0 1-31.402667 19.342222c-8.647111 2.958222-18.318222 5.12-26.510222 6.997334l-3.299556 0.739555c-9.614222 2.218667-18.090667 4.323556-25.941333 7.281778a29.240889 29.240889 0 0 1-3.413333 1.024 1084.359111 1084.359111 0 0 1-264.704 29.240889l0.796444-56.888889c83.797333 1.137778 167.480889-8.078222 249.059556-27.306667a263.623111 263.623111 0 0 1 34.816-9.557333c8.760889-1.991111 15.246222-3.413333 20.764444-5.347556a36.408889 36.408889 0 0 0 7.566222-3.584 9.500444 9.500444 0 0 0 0.284445-2.332444l-23.267556-333.767111a55.751111 55.751111 0 0 1 22.186667-48.924445c20.821333-17.294222 44.032-11.207111 55.637333-7.395555a266.467556 266.467556 0 0 1 8.817778 3.072c2.673778 1.024 4.835556 1.763556 6.883556 2.446222a23.893333 23.893333 0 0 0 7.281777 1.479111 62.407111 62.407111 0 0 0 6.257778-9.614222l2.104889-4.096a430.250667 430.250667 0 0 1 6.144-11.207111c16.611556-26.168889 25.770667-77.255111 22.414222-131.982222a306.631111 306.631111 0 0 0-13.255111-74.24c-7.168-22.300444-16.497778-38.684444-26.339555-48.583112a28.330667 28.330667 0 0 1-1.877334-2.048 1.137778 1.137778 0 0 0-0.625777-0.398222h-0.170667l-50.232889-10.410666a679.253333 679.253333 0 0 1-163.043556-61.212445z m140.629334 739.555556l0.113778-0.284445c0 0.170667-0.113778 0.284444-0.113778 0.284445z" p-id="2568"></path><path d="M340.593778 118.727111c0.341333-0.227556 1.137778-0.341333 2.048 0.113778a384.568889 384.568889 0 0 0 168.789333 45.283555l1.877333-56.832a327.68 327.68 0 0 1-143.815111-38.570666 59.164444 59.164444 0 0 0-55.580444-0.284445 622.364444 622.364444 0 0 1-149.048889 55.978667l-48.981333 10.183111a58.026667 58.026667 0 0 0-32.426667 18.887111c-18.090667 18.488889-30.72 43.804444-39.310222 70.371556a363.064889 363.064889 0 0 0-15.928889 88.348444c-3.584 58.993778 5.063111 124.131556 30.72 165.148445l3.470222 6.485333 3.242667 6.030222c2.56 4.778667 5.859556 10.524444 10.069333 16.042667 9.329778 12.117333 23.665778 22.926222 45.056 23.495111a77.937778 77.937778 0 0 0 25.6-4.152889c3.356444-1.024 6.542222-2.218667 9.159111-3.185778l0.398222-0.113777a216.746667 216.746667 0 0 1 10.012445-3.356445l-23.324445 334.222222a59.619556 59.619556 0 0 0 14.791112 43.235556c9.557333 10.410667 21.617778 15.928889 31.516444 19.342222 8.647111 2.901333 18.261333 5.12 26.510222 6.940445l3.242667 0.739555a199.111111 199.111111 0 0 1 25.941333 7.281778c1.137778 0.398222 2.275556 0.739556 3.470222 1.024 86.698667 20.593778 175.559111 30.378667 264.647112 29.240889l-0.739556-56.888889a1027.413333 1027.413333 0 0 1-249.116444-27.306667 263.566222 263.566222 0 0 0-34.816-9.557333c-8.760889-1.991111-15.189333-3.413333-20.707556-5.347556a36.238222 36.238222 0 0 1-7.566222-3.584 9.614222 9.614222 0 0 1-0.284445-2.332444l23.210667-333.767111a55.751111 55.751111 0 0 0-22.129778-48.924445c-20.821333-17.294222-44.032-11.207111-55.637333-7.395555a261.745778 261.745778 0 0 0-8.192 2.844444l-0.625778 0.227556c-2.730667 1.024-4.892444 1.763556-6.940444 2.446222a23.893333 23.893333 0 0 1-6.883556 1.479111h-0.398222a62.293333 62.293333 0 0 1-6.257778-9.614222l-2.104889-4.096c-1.649778-3.072-3.584-6.826667-5.347555-9.898667a28.558222 28.558222 0 0 0-0.739556-1.308444c-16.611556-26.168889-25.770667-77.255111-22.471111-131.982222 1.649778-26.567111 6.144-52.337778 13.255111-74.24 7.224889-22.300444 16.497778-38.684444 26.339556-48.583112a28.273778 28.273778 0 0 0 1.877333-2.048 1.137778 1.137778 0 0 1 0.682667-0.398222h0.170666l50.232889-10.410666a679.253333 679.253333 0 0 0 163.043556-61.212445z m-140.629334 739.555556s0-0.113778-0.170666-0.284445a0.739556 0.739556 0 0 0 0.170666 0.284445z" p-id="2569"></path><path d="M281.315556 129.251556a28.444444 28.444444 0 0 0-50.744889 25.713777L256 142.222222l-25.429333 12.743111 0.056889 0.113778 0.113777 0.227556 0.284445 0.568889a74.638222 74.638222 0 0 0 3.697778 6.257777c2.446222 3.982222 6.030222 9.272889 10.979555 15.530667 9.841778 12.458667 25.031111 28.558222 46.876445 44.430222C336.782222 254.179556 406.641778 284.444444 512 284.444444c105.358222 0 175.274667-30.264889 219.420444-62.350222 21.845333-15.928889 36.977778-31.971556 46.876445-44.430222a171.121778 171.121778 0 0 0 14.677333-21.845333l0.284445-0.512 0.113777-0.227556v-0.056889c0.056889-0.056889 0.056889-0.056889-25.372444-12.8l25.429333 12.743111a28.444444 28.444444 0 0 0-50.744889-25.713777l-0.227555 0.398222a115.768889 115.768889 0 0 1-8.760889 12.686222 182.158222 182.158222 0 0 1-35.783111 33.792C663.893333 200.931556 605.752889 227.555556 512 227.555556c-93.752889 0-151.836444-26.624-185.912889-51.427556a182.044444 182.044444 0 0 1-35.783111-33.792 115.370667 115.370667 0 0 1-8.760889-12.686222l-0.227555-0.398222zM540.444444 455.111111A85.333333 85.333333 0 0 1 625.777778 369.777778h56.888889a85.333333 85.333333 0 0 1 0 170.666666h-56.888889A85.333333 85.333333 0 0 1 540.444444 455.111111z m85.333334-28.444444a28.444444 28.444444 0 0 0 0 56.888889h56.888889a28.444444 28.444444 0 1 0 0-56.888889h-56.888889z" p-id="2570"></path></svg>