<?xml version="1.0" standalone="no"?><!DOCTYPE svg PUBLIC "-//W3C//DTD SVG 1.1//EN" "http://www.w3.org/Graphics/SVG/1.1/DTD/svg11.dtd"><svg t="1734184449622" class="icon" viewBox="0 0 1024 1024" version="1.1" xmlns="http://www.w3.org/2000/svg" p-id="2219" xmlns:xlink="http://www.w3.org/1999/xlink" width="200" height="200"><path d="M251.221333 287.630222a28.444444 28.444444 0 0 1-7.907555 39.424L126.464 405.048889A28.444444 28.444444 0 0 0 113.777778 428.657778v250.254222a28.444444 28.444444 0 0 0 13.824 24.405333l311.182222 186.709334a142.222222 142.222222 0 0 0 146.375111 0l311.239111-186.709334a28.444444 28.444444 0 0 0 13.824-24.462222V428.714667a28.444444 28.444444 0 0 0-12.686222-23.665778l-116.849778-77.937778a28.444444 28.444444 0 0 1 31.516445-47.331555l116.906666 77.937777A85.333333 85.333333 0 0 1 967.111111 428.657778v250.254222a85.333333 85.333333 0 0 1-41.415111 73.159111L614.4 938.837333a199.111111 199.111111 0 0 1-204.913778 0L98.417778 752.071111A85.333333 85.333333 0 0 1 56.888889 678.912V428.657778c0-28.501333 14.222222-55.182222 38.001778-70.997334l116.906666-77.937777a28.444444 28.444444 0 0 1 39.424 7.907555z" p-id="2220"></path><path d="M497.379556 678.627556l-426.666667-256 29.240889-48.810667L512 621.056l412.046222-247.239111 29.240889 48.810667-426.666667 256a28.444444 28.444444 0 0 1-29.240888 0z" p-id="2221"></path><path d="M436.053333 114.346667c31.687111-61.895111 120.206222-61.895111 151.893334 0l41.358222 80.782222a28.444444 28.444444 0 0 0 21.390222 15.246222l88.974222 12.458667c70.940444 9.955556 98.816 97.621333 46.592 146.716444l-61.667555 57.912889a28.444444 28.444444 0 0 0-8.533334 25.713778l14.904889 83.797333-55.978666 10.012445-14.904889-83.854223a85.333333 85.333333 0 0 1 25.6-77.141333l61.610666-57.912889a28.444444 28.444444 0 0 0-15.530666-48.924444l-88.974222-12.458667a85.333333 85.333333 0 0 1-64.113778-45.624889l-41.358222-80.782222a28.444444 28.444444 0 0 0-50.631112 0l-41.358222 80.782222a85.333333 85.333333 0 0 1-64.113778 45.624889l-88.974222 12.515556a28.444444 28.444444 0 0 0-15.530666 48.867555l61.667555 57.912889a85.333333 85.333333 0 0 1 25.6 77.141333l-14.961778 83.854223-55.978666-10.012445 14.904889-83.797333a28.444444 28.444444 0 0 0-8.533334-25.713778L237.738667 369.550222c-52.224-49.095111-24.348444-136.760889 46.648889-146.773333l88.917333-12.401778a28.444444 28.444444 0 0 0 21.390222-15.189333l41.358222-80.782222z m50.232889 414.151111a56.888889 56.888889 0 0 1 51.427556 0l96.426666 48.810666-25.713777 50.744889L512 579.242667l-96.426667 48.810666-25.713777-50.744889 96.426666-48.867555z" p-id="2222"></path><path d="M512 625.777778a28.444444 28.444444 0 0 1 28.444444 28.444444v284.444445a28.444444 28.444444 0 0 1-56.888888 0v-284.444445A28.444444 28.444444 0 0 1 512 625.777778z" p-id="2223"></path><path d="M853.333333 170.666667m-56.888889 0a56.888889 56.888889 0 1 0 113.777778 0 56.888889 56.888889 0 1 0-113.777778 0Z" p-id="2224"></path><path d="M512 312.888889a28.444444 28.444444 0 0 1 28.444444 28.444444v56.888889a28.444444 28.444444 0 0 1-56.888888 0V341.333333a28.444444 28.444444 0 0 1 28.444444-28.444444zM142.222222 113.777778a28.444444 28.444444 0 1 0 0 56.888889 28.444444 28.444444 0 0 0 0-56.888889zM56.888889 142.222222a85.333333 85.333333 0 1 1 170.666667 0 85.333333 85.333333 0 0 1-170.666667 0z" p-id="2225"></path></svg>