<?xml version="1.0" standalone="no"?><!DOCTYPE svg PUBLIC "-//W3C//DTD SVG 1.1//EN" "http://www.w3.org/Graphics/SVG/1.1/DTD/svg11.dtd"><svg t="1734184451230" class="icon" viewBox="0 0 1024 1024" version="1.1" xmlns="http://www.w3.org/2000/svg" p-id="2394" xmlns:xlink="http://www.w3.org/1999/xlink" width="200" height="200"><path d="M853.617778 256.227556a28.444444 28.444444 0 0 1 40.163555-2.104889l7.338667 6.599111A199.111111 199.111111 0 0 1 967.111111 408.803556V768a199.111111 199.111111 0 0 1-199.111111 199.111111H455.111111a199.111111 199.111111 0 0 1-199.111111-199.111111 28.444444 28.444444 0 0 1 56.888889 0A142.222222 142.222222 0 0 0 455.111111 910.222222h312.888889a142.222222 142.222222 0 0 0 142.222222-142.222222V408.803556a142.222222 142.222222 0 0 0-47.160889-105.813334l-7.338666-6.599111a28.444444 28.444444 0 0 1-2.104889-40.163555z" p-id="2395"></path><path d="M512.284444 108.202667a142.222222 142.222222 0 0 0-111.843555 41.187555L161.962667 387.868444a142.222222 142.222222 0 0 0 0 201.102223l201.159111 201.159111a142.222222 142.222222 0 0 0 201.102222 0l238.478222-238.478222a142.222222 142.222222 0 0 0 41.187556-111.843556l-18.716445-234.609778A85.333333 85.333333 0 0 0 746.951111 126.862222l-234.609778-18.716444z m-152.120888 0.967111A199.111111 199.111111 0 0 1 516.835556 51.484444l234.609777 18.716445a142.222222 142.222222 0 0 1 130.446223 130.446222l18.716444 234.609778a199.111111 199.111111 0 0 1-57.685333 156.672l-238.478223 238.364444a199.111111 199.111111 0 0 1-281.6 0L121.742222 629.191111a199.111111 199.111111 0 0 1 0-281.6l238.421334-238.364444z" p-id="2396"></path><path d="M654.222222 256a56.888889 56.888889 0 1 0 0 113.777778 56.888889 56.888889 0 0 0 0-113.777778z m-113.777778 56.888889a113.777778 113.777778 0 1 1 227.555556 0 113.777778 113.777778 0 0 1-227.555556 0z" p-id="2397"></path><path d="M362.040889 432.753778m20.113259 20.113259l120.679558 120.679558q20.11326 20.11326 0 40.226519l0 0q-20.11326 20.11326-40.226519 0l-120.679558-120.679558q-20.11326-20.11326 0-40.226519l0 0q20.11326-20.11326 40.226519 0Z" p-id="2398"></path></svg>