<?xml version="1.0" standalone="no"?><!DOCTYPE svg PUBLIC "-//W3C//DTD SVG 1.1//EN" "http://www.w3.org/Graphics/SVG/1.1/DTD/svg11.dtd"><svg t="1734234529457" class="icon" viewBox="0 0 1280 1024" version="1.1" xmlns="http://www.w3.org/2000/svg" p-id="2240" xmlns:xlink="http://www.w3.org/1999/xlink" width="250" height="200"><path d="M1024 64c-26.32 0-51.04 5.32-74.8 12.8C929.42 31.64 884.46 0 832 0c-70.7 0-128 57.3-128 128 0 47.26 25.9 88.08 64 110.24V320c0 35.34 28.66 64 64 64h16c8.84 0 16 7.16 16 16v32c0 8.84-7.16 16-16 16h-16c-70.58 0-128-57.42-128-128v-49.6c-40.16-36.06-64-87.84-64-142.4 0-22.56 4.62-43.88 11.8-64H384C171.92 64 0 235.92 0 448v224c0 17.68 14.32 32 32 32h32v288c0 17.68 14.32 32 32 32h128c17.68 0 32-14.32 32-32V776.3C320.7 811.4 397.44 832 480 832s159.3-20.6 224-55.7V992c0 17.68 14.32 32 32 32h128c17.68 0 32-14.32 32-32V576h128c46.88 0 90.22-13.52 128-35.5V736c0 17.66-14.34 32-32 32s-32-14.34-32-32c0-17.68-14.32-32-32-32h-64c-17.68 0-32 14.32-32 32 0 93.74 81.04 168.92 176.72 159.14 83.24-8.5 143.28-84.92 143.28-168.6V320c0-141.38-114.62-256-256-256z m32 256c-17.68 0-32-14.32-32-32s14.32-32 32-32 32 14.32 32 32-14.32 32-32 32z" p-id="2241"></path></svg>