<?xml version="1.0" standalone="no"?><!DOCTYPE svg PUBLIC "-//W3C//DTD SVG 1.1//EN" "http://www.w3.org/Graphics/SVG/1.1/DTD/svg11.dtd"><svg t="1734661719063" class="icon" viewBox="0 0 1024 1024" version="1.1" xmlns="http://www.w3.org/2000/svg" p-id="1742" xmlns:xlink="http://www.w3.org/1999/xlink" width="200" height="200"><path d="M336 192l18.016 44c11.232 27.36 26.496 95.744 22.976 128-43.616 26.88-70.368 53.12-91.008 75.008C260.768 418.624 210.88 384 128 384H96v32c0 61.248 22.112 111.008 30.016 128-8 16.864-30.016 64.864-30.016 128v32h32c82.24 0 132.736-34.752 158.016-55.008 37.856 39.008 91.84 80.128 160 111.008-3.008 19.872-5.376 47.616 2.976 80l6.016 24H480c39.488 0 73.504-19.616 100.992-36.992 22.496-14.272 33.376-24.256 39.008-29.024 127.264-4.48 208.512-73.12 252-140.992C916.992 586.88 928 516.992 928 516.992l0.992-8-2.976-8s-73.28-201.248-272-211.008c-21.12-25.6-50.656-46.848-92-64C513.12 205.76 451.616 192 384 192z m92.992 68c40.384 4.48 78.144 12.64 108 24.992 40.896 16.896 69.376 41.12 76 52l9.024 15.008H640c159.872 0 217.376 151.36 222.016 164-2.24 11.744-11.52 56.384-44 107.008C780.864 680.864 720.736 736 608 736h-12l-8.992 8s-16.896 14.4-40 28.992c-12.16 7.648-22.496 9.024-35.008 14.016 1.28-14.624 0-36 0-36l7.008-28-26.016-9.024c-79.232-30.24-146.624-87.232-180.992-126.976l-22.016-26.016-24 24s-42.624 29.888-97.984 44c8.256-37.504 20.992-70.976 20.992-70.976L196 544l-7.008-14.016s-13.856-36.736-21.984-76c58.976 13.024 98.976 49.024 98.976 49.024l24 24 22.016-26.016c28.64-32.352 105.76-112.992 219.008-128l-9.024-63.008c-30.624 4.032-57.344 12.896-82.976 23.04-1.632-26.88-3.008-50.016-10.016-73.024zM720 480a48 48 0 1 0 0 96 48 48 0 0 0 0-96z" p-id="1743"></path></svg>