<?xml version="1.0" standalone="no"?><!DOCTYPE svg PUBLIC "-//W3C//DTD SVG 1.1//EN" "http://www.w3.org/Graphics/SVG/1.1/DTD/svg11.dtd"><svg t="1734184463686" class="icon" viewBox="0 0 1024 1024" version="1.1" xmlns="http://www.w3.org/2000/svg" p-id="3602" xmlns:xlink="http://www.w3.org/1999/xlink" width="200" height="200"><path d="M248.149333 332.572444C273.464889 319.886222 306.460444 312.888889 341.333333 312.888889s67.868444 6.997333 93.184 19.683555c23.608889 11.776 49.038222 33.336889 49.038223 65.649778s-25.429333 53.873778-49.038223 65.649778C409.201778 476.558222 376.206222 483.555556 341.333333 483.555556s-67.868444-6.997333-93.184-19.683556C224.540444 452.096 199.111111 430.535111 199.111111 398.222222s25.429333-53.873778 49.038222-65.649778zM256 398.051556v0.341333l0.170667 0.568889c0.227556 0.512 0.796444 1.592889 2.048 3.015111a48.924444 48.924444 0 0 0 15.36 11.036444c15.928889 7.964444 39.822222 13.653333 67.754666 13.653334 27.932444 0 51.882667-5.688889 67.697778-13.653334a48.924444 48.924444 0 0 0 15.416889-11.036444 12.117333 12.117333 0 0 0 2.048-3.072l0.170667-0.568889v-0.284444l-0.170667-0.568889a12.117333 12.117333 0 0 0-2.048-3.015111 48.924444 48.924444 0 0 0-15.36-11.036445C393.102222 375.466667 369.208889 369.777778 341.333333 369.777778c-27.932444 0-51.882667 5.688889-67.697777 13.653333a48.924444 48.924444 0 0 0-15.416889 11.036445 12.117333 12.117333 0 0 0-2.048 3.072l-0.170667 0.568888z" p-id="3603"></path><path d="M682.666667 284.444444c31.402667 0 56.888889-12.743111 56.888889-28.444444s-25.486222-28.444444-56.888889-28.444444-56.888889 12.743111-56.888889 28.444444 25.486222 28.444444 56.888889 28.444444zM512 199.111111c0 15.701333-25.486222 28.444444-56.888889 28.444445s-56.888889-12.743111-56.888889-28.444445 25.486222-28.444444 56.888889-28.444444 56.888889 12.743111 56.888889 28.444444z" p-id="3604"></path><path d="M493.795556 56.888889c155.306667 0 292.408889 38.968889 379.733333 99.271111 43.633778 30.151111 76.8 67.072 91.591111 109.226667 13.653333 38.912 10.581333 79.644444-10.410667 118.613333 11.548444 21.617778 18.318222 44.828444 18.659556 69.176889 0.455111 29.696-8.647111 59.050667-26.908445 86.812444-25.6 38.912-61.155556 56.433778-99.498666 63.601778-33.223111 6.257778-70.428444 4.949333-105.472 3.754667l-10.24-0.341334c-79.075556-2.616889-154.168889-1.479111-217.429334 61.44-83.057778 82.488889-191.146667 82.830222-278.869333 47.104-85.902222-35.100444-160.540444-108.145778-177.379555-185.116444-9.671111-43.804444-7.509333-85.333333 5.347555-123.164444a171.975111 171.975111 0 0 1-5.347555-19.000889C35.157333 286.037333 76.970667 200.817778 158.663111 143.36c80.156444-56.32 198.542222-86.471111 335.075556-86.471111zM898.844444 366.535111c19.171556-29.184 21.560889-56.604444 12.515556-82.318222-9.443556-27.022222-32.597333-55.239111-70.257778-81.237333C765.895111 150.983111 641.137778 113.777778 493.795556 113.777778 364.088889 113.777778 258.730667 142.620444 191.374222 190.008889c-65.763556 46.193778-95.004444 109.454222-78.279111 186.026667 11.605333 52.963556 68.551111 114.062222 143.36 144.611555 73.159111 29.809778 154.965333 27.136 217.315556-34.816 82.033778-81.635556 180.679111-80.497778 259.356444-77.937778l8.931556 0.341334c36.920889 1.251556 67.697778 2.275556 94.435555-2.730667 27.022222-5.12 47.217778-15.928889 62.407111-38.968889zM108.600889 483.726222c0.398222 11.093333 1.877333 22.641778 4.551111 34.531556 11.548444 52.906667 68.494222 114.062222 143.36 144.611555 73.102222 29.809778 154.908444 27.136 217.201778-34.816 82.090667-81.635556 180.736-80.497778 259.413333-77.937777l8.931556 0.341333c36.920889 1.194667 67.697778 2.275556 94.435555-2.730667 27.022222-5.12 47.217778-15.928889 62.407111-38.968889 12.8-19.456 17.863111-37.774222 17.635556-54.727111a85.105778 85.105778 0 0 0-2.958222-20.707555 155.704889 155.704889 0 0 1-66.56 28.103111c-33.28 6.257778-70.485333 4.892444-105.528889 3.697778l-10.24-0.341334c-79.075556-2.616889-154.168889-1.479111-217.429334 61.44-83.057778 82.488889-191.146667 82.830222-278.869333 47.104A341.162667 341.162667 0 0 1 108.657778 483.726222zM128 824.888889a14.222222 14.222222 0 1 0 0 28.444444H455.111111v56.888889H128a71.111111 71.111111 0 1 1 0-142.222222H455.111111v56.888889H128z" p-id="3605"></path><path d="M932.238222 824.888889H455.111111v-56.888889h512a28.444444 28.444444 0 0 1 28.444445 28.444444H967.111111h28.444445v1.251556a81.408 81.408 0 0 1-0.739556 9.443556 158.947556 158.947556 0 0 1-4.721778 23.608888 186.140444 186.140444 0 0 1-36.693333 69.233778c-42.382222 50.915556-122.595556 95.573333-270.734222 95.573334a376.490667 376.490667 0 0 1-229.546667-78.051556 261.859556 261.859556 0 0 1-16.554667-14.108444l-1.024-1.024-0.341333-0.284445-0.113778-0.113778-0.056889-0.056889L455.111111 881.777778l20.081778-20.138667 0.455111 0.455111 2.332444 2.161778a300.600889 300.600889 0 0 0 51.2 35.271111c35.953778 19.569778 88.177778 39.139556 153.486223 39.139556 136.305778 0 198.314667-40.675556 226.986666-75.093334 11.434667-13.653333 18.375111-27.306667 22.584889-38.684444z" p-id="3606"></path><path d="M426.666667 768h56.888889V910.222222h-56.888889v-142.222222z" p-id="3607"></path></svg>