<?xml version="1.0" standalone="no"?><!DOCTYPE svg PUBLIC "-//W3C//DTD SVG 1.1//EN" "http://www.w3.org/Graphics/SVG/1.1/DTD/svg11.dtd"><svg t="1734184461797" class="icon" viewBox="0 0 1024 1024" version="1.1" xmlns="http://www.w3.org/2000/svg" p-id="3429" xmlns:xlink="http://www.w3.org/1999/xlink" width="200" height="200"><path d="M479.857778 469.390222C447.544889 515.527111 426.666667 580.835556 426.666667 654.222222c0 73.386667 20.878222 138.695111 53.191111 184.832C512.227556 885.191111 554.097778 910.222222 597.333333 910.222222c43.178667 0 85.105778-24.974222 117.475556-71.168 32.312889-46.136889 53.191111-111.388444 53.191111-184.832 0-73.386667-20.878222-138.695111-53.191111-184.832C682.439111 423.253333 640.568889 398.222222 597.333333 398.222222c-43.178667 0-85.105778 24.974222-117.475555 71.168z m-46.648889-32.597333C472.974222 380.017778 530.545778 341.333333 597.333333 341.333333c66.787556 0 124.416 38.684444 164.067556 95.459556 39.822222 56.775111 63.488 133.745778 63.488 217.429333 0 83.626667-23.665778 160.654222-63.488 217.429334C721.806222 928.426667 664.120889 967.111111 597.333333 967.111111s-124.416-38.684444-164.067555-95.459555c-39.822222-56.775111-63.488-133.745778-63.488-217.429334 0-83.626667 23.665778-160.654222 63.488-217.429333z" p-id="3430"></path><path d="M910.222222 654.222222C910.222222 515.356444 785.464889 398.222222 625.777778 398.222222V341.333333c185.912889 0 341.333333 137.614222 341.333333 312.888889S811.690667 967.111111 625.777778 967.111111v-56.888889c159.687111 0 284.444444-117.134222 284.444444-256z" p-id="3431"></path><path d="M558.421333 509.098667l11.946667 35.726222a28.444444 28.444444 0 0 0 53.930667 0l11.946666-35.726222a40.96 40.96 0 1 0-77.824 0zM507.904 690.005333l24.234667-9.671111a28.103111 28.103111 0 0 0 0-52.167111l-24.234667-9.671111a38.513778 38.513778 0 1 0 0 71.509333zM686.762667 690.005333l-24.234667-9.671111a28.103111 28.103111 0 0 1 0-52.167111l24.177778-9.671111a38.513778 38.513778 0 1 1 0 71.509333zM558.421333 799.345778l11.946667-35.726222a28.444444 28.444444 0 0 1 53.930667 0l11.946666 35.726222a40.96 40.96 0 1 1-77.824 0zM324.835556 96.881778C376.32 70.485333 437.475556 56.888889 512 56.888889s135.736889 13.653333 187.164444 39.992889c51.427556 26.339556 91.306667 64.625778 124.416 111.217778 17.066667 24.064 41.130667 42.837333 68.152889 63.943111 6.997333 5.404444 14.222222 11.036444 21.504 16.896C945.493333 314.936889 967.111111 354.417778 967.111111 398.222222h-56.888889c0-24.689778-12.288-48.526222-32.711111-64.967111-5.518222-4.494222-11.491556-9.102222-17.692444-13.937778-27.648-21.390222-60.245333-46.705778-82.602667-78.279111-29.013333-40.789333-62.350222-72.192-104.106667-93.582222C631.466667 126.065778 579.527111 113.777778 512 113.777778s-119.409778 12.288-161.166222 33.678222c-41.699556 21.390222-75.036444 52.792889-104.049778 93.582222-22.414222 31.573333-54.954667 56.888889-82.602667 78.279111-6.257778 4.835556-12.174222 9.443556-17.692444 13.937778C126.008889 349.696 113.777778 373.532444 113.777778 398.222222H56.888889c0-43.804444 21.617778-83.285333 53.873778-109.283555 7.338667-5.859556 14.506667-11.491556 21.504-16.896 27.022222-21.105778 51.086222-39.879111 68.152889-63.943111 33.109333-46.648889 72.988444-84.878222 124.472888-111.217778zM398.222222 726.755556a338.944 338.944 0 0 1-73.386666-27.192889c-51.427556-26.339556-91.306667-64.625778-124.416-111.217778-17.066667-24.064-41.130667-42.837333-68.152889-63.943111a1744.384 1744.384 0 0 1-21.504-16.896C78.506667 481.507556 56.888889 442.026667 56.888889 398.222222h56.888889c0 24.689778 12.288 48.526222 32.711111 64.967111 5.518222 4.494222 11.491556 9.102222 17.692444 13.937778 27.648 21.390222 60.188444 46.705778 82.602667 78.279111 29.013333 40.789333 62.350222 72.192 104.106667 93.582222 14.449778 7.395556 30.151111 13.767111 47.331555 18.830223v58.936889zM909.084444 510.862222l4.152889-3.356444C945.493333 481.507556 967.111111 442.026667 967.111111 398.222222h-56.888889c0 24.689778-12.288 48.526222-32.711111 64.967111-2.844444 2.332444-5.859556 4.721778-8.988444 7.111111l40.561777 40.561778z" p-id="3432"></path><path d="M369.777778 284.444444a28.444444 28.444444 0 1 0 0 56.888889 28.444444 28.444444 0 0 0 0-56.888889zM284.444444 312.888889a85.333333 85.333333 0 1 1 170.666667 0 85.333333 85.333333 0 0 1-170.666667 0zM227.555556 768a56.888889 56.888889 0 1 0 0 113.777778 56.888889 56.888889 0 0 0 0-113.777778z m-113.777778 56.888889a113.777778 113.777778 0 1 1 227.555555 0 113.777778 113.777778 0 0 1-227.555555 0z" p-id="3433"></path></svg>