<?xml version="1.0" standalone="no"?><!DOCTYPE svg PUBLIC "-//W3C//DTD SVG 1.1//EN" "http://www.w3.org/Graphics/SVG/1.1/DTD/svg11.dtd"><svg t="1734184465430" class="icon" viewBox="0 0 1024 1024" version="1.1" xmlns="http://www.w3.org/2000/svg" p-id="3776" xmlns:xlink="http://www.w3.org/1999/xlink" width="200" height="200"><path d="M512 995.555556c177.265778 0 330.638222-59.562667 422.627556-212.935112 46.364444-77.255111 54.328889-155.022222 46.478222-213.902222a231.139556 231.139556 0 0 0-21.617778-73.728 102.4 102.4 0 0 0-17.351111-25.031111C936.163556 463.872 925.184 455.111111 910.222222 455.111111a28.444444 28.444444 0 0 0-20.138666 8.305778c-10.183111 10.24-19.114667 18.204444-26.965334 24.462222 7.395556-17.863111 13.027556-37.148444 16.099556-57.059555 3.982222-5.12 9.386667-12.401778 16.099555-22.528 15.018667-22.471111 36.977778-59.164444 65.763556-116.792889 34.133333-68.266667 16.156444-135.395556-7.111111-181.930667a335.587556 335.587556 0 0 0-55.068445-78.506667 28.444444 28.444444 0 0 0-37.205333-2.616889l-6.144 5.006223a248.718222 248.718222 0 0 0-50.972444 60.017777c-24.576 41.016889-42.211556 101.376-8.135112 169.528889 17.806222 35.669333 24.462222 74.24 26.339556 104.675556 0.341333 4.608 0.739556 8.931556 1.137778 12.913778 0.568889 6.599111 1.137778 12.401778 0.967111 17.635555v1.080889c-0.284444 7.964444-0.568889 15.36-2.56 26.737778a194.161778 194.161778 0 0 1-9.500445 34.247111 28.046222 28.046222 0 0 0-6.428444-3.413333L786.204444 304.924444a139.207111 139.207111 0 0 0-186.88-111.957333A248.490667 248.490667 0 0 1 512 208.725333v56.888889c36.352 0 72.647111-6.485333 107.235556-19.456a82.318222 82.318222 0 0 1 110.535111 66.218667l24.348444 182.613333C720.440889 531.968 647.736889 568.888889 512 568.888889v56.888889c115.768889 0 198.200889-25.486222 251.107556-63.203556l4.209777 31.459556a71.68 71.68 0 0 1-13.482666 16.611555c-10.524444 10.126222-26.225778 21.617778-47.672889 32.426667C663.381333 664.462222 599.096889 682.666667 512 682.666667v56.888889c94.947556 0 168.163556-19.797333 219.704889-45.681778a251.335111 251.335111 0 0 0 61.667555-42.325334c14.677333-14.165333 26.453333-30.492444 30.72-47.331555l1.251556-5.233778-4.152889-31.118222c9.557333-1.137778 20.252444-3.413333 32.028445-8.135111 17.294222-6.883556 35.669333-18.488889 56.661333-36.864 5.916444 12.231111 11.776 30.492444 14.791111 53.361778 6.371556 47.729778 0.113778 112.184889-38.855111 177.152C807.139556 884.451556 676.067556 938.666667 512 938.666667v56.888889z m398.222222-729.543112c-12.970667 25.941333-24.348444 47.217778-34.190222 64.682667a314.709333 314.709333 0 0 0-28.728889-93.127111c-22.755556-45.511111-12.003556-84.707556 6.087111-114.858667 7.224889-12.060444 15.530667-22.357333 22.983111-30.435555 8.362667 11.093333 18.204444 25.713778 26.737778 42.780444 19.456 38.855111 29.809778 85.560889 7.111111 130.958222z" p-id="3777"></path><path d="M512 426.666667a28.330667 28.330667 0 0 0 20.138667-8.305778l45.056-45.112889C597.674667 352.711111 625.322667 341.333333 654.222222 341.333333a28.444444 28.444444 0 0 0 0-56.888889c-43.975111 0-86.129778 17.464889-117.191111 48.583112L512 358.001778V426.666667zM512 995.555556v-56.888889c-164.067556 0-295.139556-54.215111-373.816889-185.287111-38.968889-64.967111-45.226667-129.422222-38.855111-177.152a179.2 179.2 0 0 1 14.791111-53.361778c21.048889 18.375111 39.367111 29.980444 56.661333 36.864 11.776 4.721778 22.471111 6.997333 32.028445 8.135111l-4.152889 31.118222 1.308444 5.233778c4.209778 16.839111 15.928889 33.166222 30.72 47.331555 15.246222 14.791111 35.84 29.411556 61.610667 42.325334C343.893333 719.758222 417.052444 739.555556 512 739.555556v-56.888889c-87.096889 0-151.381333-18.147556-194.161778-39.651556a195.015111 195.015111 0 0 1-47.672889-32.369778 71.68 71.68 0 0 1-13.482666-16.611555l4.209777-31.459556C313.799111 600.291556 396.231111 625.777778 512 625.777778v-56.888889c-135.736889 0-208.440889-36.977778-242.119111-73.898667l24.348444-182.613333a82.318222 82.318222 0 0 1 110.535111-66.218667A305.322667 305.322667 0 0 0 512 265.671111v-56.888889c-29.582222 0-59.164444-5.290667-87.267556-15.815111a139.207111 139.207111 0 0 0-186.88 111.957333l-20.252444 152.064a28.444444 28.444444 0 0 0-15.473778 39.367112c2.446222 4.892444 5.176889 9.728 8.248889 14.506666l-0.056889 0.625778a65.194667 65.194667 0 0 1-18.432-4.551111c-12.856889-5.12-31.061333-16.497778-58.026666-43.463111A28.444444 28.444444 0 0 0 113.777778 455.111111c-14.961778 0-25.941333 8.760889-31.914667 14.848a102.4 102.4 0 0 0-17.408 25.031111c-9.671111 18.944-17.635556 44.373333-21.560889 73.671111-7.850667 58.936889 0.113778 136.704 46.478222 213.959111C181.361778 935.992889 334.734222 995.555556 512 995.555556z" p-id="3778"></path><path d="M512 358.001778l-25.031111-25.031111A165.774222 165.774222 0 0 0 369.777778 284.444444a28.444444 28.444444 0 0 0 0 56.888889c28.899556 0 56.604444 11.491556 77.027555 31.857778l45.056 45.169778A28.330667 28.330667 0 0 0 512 426.666667V358.001778z" p-id="3779"></path></svg>