<?xml version="1.0" standalone="no"?><!DOCTYPE svg PUBLIC "-//W3C//DTD SVG 1.1//EN" "http://www.w3.org/Graphics/SVG/1.1/DTD/svg11.dtd"><svg t="1734184433500" class="icon" viewBox="0 0 1024 1024" version="1.1" xmlns="http://www.w3.org/2000/svg" p-id="1179" xmlns:xlink="http://www.w3.org/1999/xlink" width="200" height="200"><path d="M368.753778 56.888889h286.492444c38.912 0 69.518222 0 94.264889 1.706667 25.258667 1.706667 46.535111 5.290667 66.218667 13.425777a199.111111 199.111111 0 0 1 107.804444 107.804445c8.135111 19.683556 11.719111 40.96 13.425778 66.161778 1.706667 24.803556 1.706667 55.409778 1.706667 94.321777V881.777778h-56.888889V341.333333c0-40.163556 0-68.835556-1.536-91.420444-1.536-22.357333-4.494222-36.693333-9.272889-48.355556a142.222222 142.222222 0 0 0-76.970667-76.970666c-11.662222-4.778667-25.998222-7.736889-48.355555-9.272889C723.057778 113.777778 694.385778 113.777778 654.222222 113.777778h-284.444444c-40.163556 0-68.835556 0-91.420445 1.536-22.357333 1.536-36.693333 4.494222-48.355555 9.272889A142.222222 142.222222 0 0 0 153.031111 201.557333c-4.778667 11.662222-7.736889 25.998222-9.272889 48.355556C142.222222 272.497778 142.222222 301.169778 142.222222 341.333333v540.444445h-56.888889V340.309333c0-38.912 0-69.518222 1.706667-94.321777 1.706667-25.201778 5.290667-46.478222 13.425778-66.161778a199.111111 199.111111 0 0 1 107.804444-107.804445c19.683556-8.135111 40.96-11.719111 66.161778-13.425777C299.235556 56.888889 329.841778 56.888889 368.753778 56.888889z" p-id="1180"></path><path d="M227.555556 853.333333a28.444444 28.444444 0 0 1 28.444444 28.444445 28.444444 28.444444 0 0 0 56.888889 0 28.444444 28.444444 0 0 1 56.888889 0 28.444444 28.444444 0 0 0 56.888889 0 28.444444 28.444444 0 0 1 56.888889 0 28.444444 28.444444 0 0 0 56.888888 0 28.444444 28.444444 0 0 1 56.888889 0 28.444444 28.444444 0 0 0 56.888889 0 28.444444 28.444444 0 0 1 56.888889 0 28.444444 28.444444 0 0 0 56.888889 0 28.444444 28.444444 0 0 1 56.888889 0 28.444444 28.444444 0 0 0 56.888889 0h56.888889a85.333333 85.333333 0 0 1-142.222223 63.601778A84.992 84.992 0 0 1 739.555556 967.111111c-21.845333 0-41.813333-8.192-56.888889-21.731555A84.992 84.992 0 0 1 625.777778 967.111111c-21.845333 0-41.813333-8.192-56.888889-21.731555A84.992 84.992 0 0 1 512 967.111111c-21.845333 0-41.813333-8.192-56.888889-21.731555A84.992 84.992 0 0 1 398.222222 967.111111c-21.845333 0-41.813333-8.192-56.888889-21.731555A84.992 84.992 0 0 1 284.444444 967.111111c-21.845333 0-41.813333-8.192-56.888888-21.731555A85.333333 85.333333 0 0 1 85.333333 881.777778h56.888889a28.444444 28.444444 0 0 0 56.888889 0A28.444444 28.444444 0 0 1 227.555556 853.333333zM568.888889 426.666667a28.444444 28.444444 0 0 1 28.444444-28.444445h113.777778a28.444444 28.444444 0 0 1 0 56.888889h-113.777778a28.444444 28.444444 0 0 1-28.444444-28.444444z m-284.444445 227.555555a28.444444 28.444444 0 0 1 28.444445-28.444444h398.222222a28.444444 28.444444 0 0 1 0 56.888889h-398.222222a28.444444 28.444444 0 0 1-28.444445-28.444445zM398.222222 483.555556a56.888889 56.888889 0 1 0 0-113.777778 56.888889 56.888889 0 0 0 0 113.777778z m113.777778-56.888889a113.777778 113.777778 0 1 1-227.555556 0 113.777778 113.777778 0 0 1 227.555556 0z" p-id="1181"></path></svg>