<?xml version="1.0" standalone="no"?><!DOCTYPE svg PUBLIC "-//W3C//DTD SVG 1.1//EN" "http://www.w3.org/Graphics/SVG/1.1/DTD/svg11.dtd"><svg t="1734184443250" class="icon" viewBox="0 0 1024 1024" version="1.1" xmlns="http://www.w3.org/2000/svg" p-id="1698" xmlns:xlink="http://www.w3.org/1999/xlink" width="200" height="200"><path d="M113.777778 568.888889v199.111111A142.222222 142.222222 0 0 0 256 910.222222h512a142.222222 142.222222 0 0 0 142.222222-142.222222V568.888889h56.888889v199.111111a199.111111 199.111111 0 0 1-199.111111 199.111111h-512A199.111111 199.111111 0 0 1 56.888889 768V568.888889h56.888889z" p-id="1699"></path><path d="M227.555556 341.333333h568.888888a113.777778 113.777778 0 0 1 113.777778 113.777778v113.777778h56.888889V455.111111a170.666667 170.666667 0 0 0-170.666667-170.666667H227.555556a170.666667 170.666667 0 0 0-170.666667 170.666667v113.777778h56.888889V455.111111a113.777778 113.777778 0 0 1 113.777778-113.777778z" p-id="1700"></path><path d="M842.865778 247.694222a142.222222 142.222222 0 0 0-174.136889-100.579555l-439.637333 117.76a142.222222 142.222222 0 0 0-105.415112 139.776 28.444444 28.444444 0 1 1-56.888888 1.024 199.111111 199.111111 0 0 1 147.569777-195.697778l439.637334-117.816889a199.111111 199.111111 0 0 1 243.825777 140.8l31.459556 117.361778a28.444444 28.444444 0 1 1-54.954667 14.734222l-31.459555-117.361778z" p-id="1701"></path><path d="M170.666667 483.555556a28.444444 28.444444 0 0 1 28.444444-28.444445h625.777778a28.444444 28.444444 0 0 1 0 56.888889h-625.777778a28.444444 28.444444 0 0 1-28.444444-28.444444z" p-id="1702"></path><path d="M284.444444 654.222222a28.444444 28.444444 0 1 0 0 56.888889 28.444444 28.444444 0 0 0 0-56.888889z m-85.333333 28.444445a85.333333 85.333333 0 1 1 170.666667 0 85.333333 85.333333 0 0 1-170.666667 0zM426.666667 682.666667A85.333333 85.333333 0 0 1 512 597.333333h256a85.333333 85.333333 0 0 1 0 170.666667H512A85.333333 85.333333 0 0 1 426.666667 682.666667z m85.333333-28.444445a28.444444 28.444444 0 0 0 0 56.888889h256a28.444444 28.444444 0 0 0 0-56.888889H512z" p-id="1703"></path></svg>