<?xml version="1.0" standalone="no"?><!DOCTYPE svg PUBLIC "-//W3C//DTD SVG 1.1//EN" "http://www.w3.org/Graphics/SVG/1.1/DTD/svg11.dtd"><svg t="1734184468562" class="icon" viewBox="0 0 1024 1024" version="1.1" xmlns="http://www.w3.org/2000/svg" p-id="4121" xmlns:xlink="http://www.w3.org/1999/xlink" width="200" height="200"><path d="M387.242667 170.097778C358.172444 205.255111 341.333333 255.431111 341.333333 312.888889c0 57.514667 16.839111 107.633778 45.909334 142.791111C415.857778 490.268444 457.557333 512 512 512c54.442667 0 96.142222-21.731556 124.757333-56.32 29.070222-35.157333 45.909333-85.276444 45.909334-142.791111 0-14.336-1.024-28.330667-3.072-41.699556l56.206222-8.533333c2.503111 16.270222 3.754667 33.109333 3.754667 50.232889 0 68.152889-19.911111 131.811556-58.936889 179.029333C641.080889 539.704889 583.281778 568.888889 512 568.888889s-129.137778-29.184-168.618667-76.970667C304.355556 444.700444 284.444444 380.984889 284.444444 312.888889c0-68.152889 19.911111-131.811556 58.936889-179.029333C382.919111 86.072889 440.718222 56.888889 512 56.888889v56.888889c-54.442667 0-96.142222 21.731556-124.757333 56.32z" p-id="4122"></path><path d="M426.666667 512a28.444444 28.444444 0 0 1 28.444444 28.444444v28.444445c0-0.568889 0-0.455111 0.284445 0.113778a35.555556 35.555556 0 0 0 10.808888 13.596444c9.102222 7.566222 23.950222 14.734222 45.795556 14.734222 21.845333 0 36.693333-7.168 45.795556-14.791111a35.498667 35.498667 0 0 0 10.808888-13.539555C568.832 568.433778 568.888889 568.32 568.888889 568.888889v-28.444445a28.444444 28.444444 0 1 1 56.888889 0v28.444445c0 21.048889-13.653333 42.496-31.573334 57.457778-19.342222 16.099556-47.160889 27.875556-82.204444 27.875555-35.043556 0-62.862222-11.776-82.204444-27.875555C411.875556 611.328 398.222222 589.937778 398.222222 568.888889v-28.444445a28.444444 28.444444 0 0 1 28.444445-28.444444z" p-id="4123"></path><path d="M483.555556 85.333333A28.444444 28.444444 0 0 1 512 56.888889h256a28.444444 28.444444 0 0 1 28.444444 28.444444v0.853334l-0.056888 1.137777a84.764444 84.764444 0 0 1-1.991112 13.653334 107.178667 107.178667 0 0 1-12.686222 31.004444 132.551111 132.551111 0 0 1-36.693333 39.139556l0.853333 0.227555 0.568889 0.170667h0.170667a28.444444 28.444444 0 0 1 21.390222 27.591111v0.910222l-0.056889 1.365334-0.341333 3.982222a102.912 102.912 0 0 1-2.104889 12.572444 133.12 133.12 0 0 1-15.758222 38.456889c-18.033778 30.037333-52.224 62.577778-114.915556 83.456a250.368 250.368 0 0 1-160.256 0 258.787556 258.787556 0 0 1-60.017778-29.127111 138.126222 138.126222 0 0 1-3.697777-2.56l-1.080889-0.853333-0.341334-0.227556-0.113777-0.113778h-0.056889a28.444444 28.444444 0 0 1 34.759111-45.056l0.398222 0.284445 2.161778 1.536a201.898667 201.898667 0 0 0 45.966222 22.186667c31.232 10.353778 74.524444 16.554667 124.245333 0 51.029333-17.066667 73.728-41.415111 84.195556-58.766223 1.706667-2.901333 3.128889-5.688889 4.323555-8.305777a369.208889 369.208889 0 0 1-12.572444-4.209778 119.751111 119.751111 0 0 1-27.704889-13.084445 40.163556 40.163556 0 0 1-8.305778-7.850666 30.947556 30.947556 0 0 1 4.551111-43.406223c4.551111-3.697778 9.329778-5.575111 12.401778-6.599111 26.168889-8.760889 41.642667-20.024889 50.858667-29.923555H512a28.444444 28.444444 0 0 1-28.444444-28.444445z" p-id="4124"></path><path d="M370.005333 611.84c0.796444-4.664889 3.982222-11.207111 13.255111-19.057778 11.036444-9.329778 28.387556-18.375111 51.313778-25.031111l-15.815111-54.613333c-28.046222 8.078222-53.418667 20.252444-72.248889 36.238222-18.887111 16.042667-33.621333 38.115556-33.621333 64.967111a51.2 51.2 0 0 0 8.931555 27.875556c4.551111 6.997333 10.467556 13.255111 16.497778 18.716444 11.832889 10.808889 27.192889 21.219556 42.325334 30.264889 46.990222 28.216889 80.725333 71.68 86.926222 121.514667l16.213333 129.479111 56.433778-7.054222-16.156445-129.479112c-8.988444-71.509333-56.32-128.568889-114.119111-163.271111a218.339556 218.339556 0 0 1-33.336889-23.495111 49.834667 49.834667 0 0 1-6.599111-7.054222z" p-id="4125"></path><path d="M653.994667 611.84c-0.796444-4.664889-3.982222-11.207111-13.255111-19.057778-11.036444-9.329778-28.387556-18.375111-51.313778-25.031111l15.815111-54.613333c28.103111 8.078222 53.418667 20.252444 72.248889 36.238222 18.887111 16.042667 33.621333 38.115556 33.621333 64.967111a51.2 51.2 0 0 1-8.988444 27.875556c-4.551111 6.997333-10.410667 13.255111-16.384 18.716444a272.497778 272.497778 0 0 1-42.382223 30.264889c-46.990222 28.216889-80.725333 71.68-86.926222 121.514667l-16.213333 129.479111-56.433778-7.054222 16.156445-129.479112c8.988444-71.509333 56.32-128.568889 114.119111-163.271111 13.880889-8.248889 25.486222-16.384 33.336889-23.495111a49.891556 49.891556 0 0 0 6.599111-7.054222z" p-id="4126"></path><path d="M368.924444 572.245333a28.444444 28.444444 0 0 1-20.650666 34.531556c-78.734222 19.797333-141.880889 62.805333-191.146667 127.317333-27.079111 35.498667-20.138667 79.530667 12.686222 100.010667C226.247111 869.205333 330.808889 910.222222 512 910.222222c181.191111 0 285.752889-41.016889 342.186667-76.117333 32.824889-20.48 39.822222-64.512 12.686222-100.010667-49.265778-64.512-112.412444-107.52-191.146667-127.317333a28.444444 28.444444 0 0 1 13.880889-55.182222c91.761778 23.096889 165.831111 73.728 222.492445 148.024889 43.690667 57.287111 38.4 141.482667-27.875556 182.727111C817.379556 923.989333 702.065778 967.111111 512 967.111111c-190.008889 0-305.379556-43.121778-372.224-84.764444-66.275556-41.244444-71.566222-125.44-27.875556-182.727111 56.661333-74.296889 130.730667-124.928 222.492445-148.024889a28.444444 28.444444 0 0 1 34.531555 20.650666z" p-id="4127"></path><path d="M793.429333 755.256889a28.444444 28.444444 0 0 1-12.686222 38.172444 345.884444 345.884444 0 0 1-69.859555 27.079111 164.067556 164.067556 0 0 1-25.088 4.266667l-1.934223 0.113778H682.780444a28.444444 28.444444 0 0 1-0.568888-56.888889h0.056888a107.349333 107.349333 0 0 0 14.848-2.730667 289.962667 289.962667 0 0 0 58.197334-22.755555 28.444444 28.444444 0 0 1 38.172444 12.743111z" p-id="4128"></path></svg>