<?xml version="1.0" standalone="no"?><!DOCTYPE svg PUBLIC "-//W3C//DTD SVG 1.1//EN" "http://www.w3.org/Graphics/SVG/1.1/DTD/svg11.dtd"><svg t="1734184456233" class="icon" viewBox="0 0 1024 1024" version="1.1" xmlns="http://www.w3.org/2000/svg" p-id="2912" xmlns:xlink="http://www.w3.org/1999/xlink" width="200" height="200"><path d="M410.168889 142.222222A85.333333 85.333333 0 0 1 495.502222 56.888889H512c40.789333 0 75.264 20.024889 103.537778 40.561778a871.708444 871.708444 0 0 1 40.96 32.142222c13.084444 10.581333 25.144889 19.911111 36.977778 27.591111 13.255111 8.533333 29.013333 13.482667 46.08 13.482667h113.777777a85.333333 85.333333 0 0 1 84.707556 74.865777 66.56 66.56 0 0 1-1.763556 23.722667c-4.437333 18.773333-17.351111 75.207111-25.884444 136.078222-4.323556 30.492444-7.452444 61.553778-8.021333 89.315556-0.568889 28.444444 1.592889 50.801778 6.371555 65.251555 29.980444 89.941333 32.426667 179.2 29.923556 237.795556a1183.175111 1183.175111 0 0 0-0.113778 95.004444v1.308445l0.056889 0.341333v0.056889l0.056889 1.592889a71.111111 71.111111 0 1 1-142.222223 0v-128.455111a28.444444 28.444444 0 0 0-33.962666-27.875556l-16.497778 3.242667a224.597333 224.597333 0 0 0-120.035556 85.105778A332.117333 332.117333 0 0 1 355.783111 967.111111H121.173333a64.284444 64.284444 0 0 1-31.232-120.433778l164.864-91.591111a417.564444 417.564444 0 0 0 117.930667-97.678222c26.567111-31.857778 37.376-75.320889 37.376-121.969778V142.222222z m85.333333-28.444444a28.444444 28.444444 0 0 0-28.444444 28.444444v393.216c0 54.328889-12.515556 112.696889-50.631111 158.378667a474.282667 474.282667 0 0 1-134.030223 110.990222l-164.807111 91.591111-13.767111-24.689778 13.767111 24.689778A7.395556 7.395556 0 0 0 121.173333 910.222222h234.552889a275.228444 275.228444 0 0 0 223.971556-115.256889 281.486222 281.486222 0 0 1 153.998222-107.633777l17.749333-3.470223A85.333333 85.333333 0 0 1 853.333333 767.544889v128.455111a14.222222 14.222222 0 0 0 28.444445 0.568889l-0.056889-1.137778a704 704 0 0 1-0.853333-27.363555c-0.284444-18.204444-0.284444-43.690667 0.967111-72.817778 2.275556-55.182222-0.113778-136.647111-27.022223-217.315556-7.964444-23.893333-9.955556-54.215111-9.329777-84.423111a830.577778 830.577778 0 0 1 8.533333-96.142222c8.931556-63.431111 22.300444-121.742222 26.908444-141.255111a25.884444 25.884444 0 0 0 0.568889-3.128889c0.113778-0.568889 0-0.739556 0.056889-0.568889A28.444444 28.444444 0 0 0 853.333333 227.555556h-113.777777c-28.273778 0-54.670222-8.305778-76.856889-22.528a498.744889 498.744889 0 0 1-41.870223-31.061334 800.768 800.768 0 0 0-38.798222-30.492444C556.145778 124.586667 534.072889 113.777778 512 113.777778h-16.497778z" p-id="2913"></path><path d="M369.777778 227.555556a28.444444 28.444444 0 0 1 28.444444-28.444445h113.777778a28.444444 28.444444 0 0 1 0 56.888889H398.222222a28.444444 28.444444 0 0 1-28.444444-28.444444zM369.777778 369.777778A28.444444 28.444444 0 0 1 398.222222 341.333333h113.777778a28.444444 28.444444 0 0 1 0 56.888889H398.222222a28.444444 28.444444 0 0 1-28.444444-28.444444zM369.777778 512a28.444444 28.444444 0 0 1 28.444444-28.444444h113.777778a28.444444 28.444444 0 0 1 0 56.888888H398.222222a28.444444 28.444444 0 0 1-28.444444-28.444444z" p-id="2914"></path></svg>