<?xml version="1.0" standalone="no"?><!DOCTYPE svg PUBLIC "-//W3C//DTD SVG 1.1//EN" "http://www.w3.org/Graphics/SVG/1.1/DTD/svg11.dtd"><svg t="1734184440522" class="icon" viewBox="0 0 1080 1024" version="1.1" xmlns="http://www.w3.org/2000/svg" p-id="1523" xmlns:xlink="http://www.w3.org/1999/xlink" width="210.9375" height="200"><path d="M340.309333 113.777778h229.603556c38.912 0 69.518222 0 94.264889 1.706666 25.258667 1.706667 46.535111 5.290667 66.218666 13.425778a199.111111 199.111111 0 0 1 107.804445 107.804445c3.982222 9.557333 6.826667 19.512889 8.931555 30.151111l-55.751111 11.093333a103.139556 103.139556 0 0 0-5.745777-19.512889 142.222222 142.222222 0 0 0-76.970667-76.970666c-11.662222-4.778667-25.998222-7.736889-48.355556-9.272889C637.724444 170.666667 609.052444 170.666667 568.888889 170.666667H341.333333c-40.163556 0-68.835556 0-91.420444 1.536-22.357333 1.536-36.693333 4.494222-48.355556 9.272889A142.222222 142.222222 0 0 0 124.586667 258.446222c-4.778667 11.662222-7.736889 25.998222-9.272889 48.355556C113.777778 329.386667 113.777778 358.058667 113.777778 398.222222v284.444445c0 40.163556 0 68.835556 1.536 91.420444 1.536 22.357333 4.494222 36.693333 9.272889 48.355556a142.222222 142.222222 0 0 0 76.970666 76.970666c11.662222 4.778667 25.998222 7.736889 48.355556 9.272889C272.497778 910.222222 301.169778 910.222222 341.333333 910.222222h227.555556c40.163556 0 68.835556 0 91.420444-1.536 22.357333-1.536 36.693333-4.494222 48.355556-9.272889a142.222222 142.222222 0 0 0 76.970667-76.970666c4.778667-11.662222 7.736889-25.998222 9.272888-48.355556C796.444444 751.502222 796.444444 722.830222 796.444444 682.666667v-113.777778h56.888889v114.801778c0 38.912 0 69.518222-1.706666 94.264889-1.706667 25.258667-5.290667 46.535111-13.425778 66.218666a199.111111 199.111111 0 0 1-107.804445 107.804445c-19.683556 8.135111-40.96 11.719111-66.218666 13.425777-24.746667 1.706667-55.352889 1.706667-94.264889 1.706667H340.309333c-38.912 0-69.518222 0-94.321777-1.706667-25.201778-1.706667-46.478222-5.290667-66.161778-13.425777a199.111111 199.111111 0 0 1-107.804445-107.804445c-8.135111-19.683556-11.719111-40.96-13.425777-66.218666C56.888889 753.208889 56.888889 722.602667 56.888889 683.690667V397.198222c0-38.912 0-69.518222 1.706667-94.321778 1.706667-25.201778 5.290667-46.478222 13.425777-66.161777a199.111111 199.111111 0 0 1 107.804445-107.804445c19.683556-8.135111 40.96-11.719111 66.161778-13.425778C270.791111 113.777778 301.397333 113.777778 340.309333 113.777778z" p-id="1524"></path><path d="M85.333333 341.333333a28.444444 28.444444 0 0 1 28.444445-28.444444h625.777778a28.444444 28.444444 0 0 1 0 56.888889H113.777778a28.444444 28.444444 0 0 1-28.444445-28.444445zM284.444444 56.888889a28.444444 28.444444 0 0 1 28.444445 28.444444v113.777778a28.444444 28.444444 0 0 1-56.888889 0v-113.777778A28.444444 28.444444 0 0 1 284.444444 56.888889zM625.777778 56.888889a28.444444 28.444444 0 0 1 28.444444 28.444444v113.777778a28.444444 28.444444 0 0 1-56.888889 0v-113.777778A28.444444 28.444444 0 0 1 625.777778 56.888889z" p-id="1525"></path><path d="M341.333333 763.107556a199.111111 199.111111 0 0 1 58.311111-140.8l328.704-328.704a142.222222 142.222222 0 1 1 201.159112 201.159111l-328.704 328.704A199.111111 199.111111 0 0 1 460.003556 881.777778H398.222222a56.888889 56.888889 0 0 1-56.888889-56.888889v-61.781333z m98.531556-100.579556A142.222222 142.222222 0 0 0 398.222222 763.107556V824.888889h61.781334a142.222222 142.222222 0 0 0 100.579555-41.642667l328.704-328.704a85.333333 85.333333 0 1 0-120.718222-120.718222l-328.704 328.704z" p-id="1526"></path><path d="M391.338667 655.075556a28.444444 28.444444 0 0 1 34.474666 20.707555 167.025778 167.025778 0 0 0 121.514667 121.514667 28.444444 28.444444 0 0 1-13.767111 55.182222 223.914667 223.914667 0 0 1-162.929778-162.929778 28.444444 28.444444 0 0 1 20.707556-34.474666zM719.416889 321.194667a28.444444 28.444444 0 0 1 40.277333 0l142.222222 142.222222a28.444444 28.444444 0 0 1-40.277333 40.277333l-142.222222-142.222222a28.444444 28.444444 0 0 1 0-40.277333z" p-id="1527"></path><path d="M256 711.111111a28.444444 28.444444 0 0 1 56.888889 0 28.444444 28.444444 0 0 1-56.888889 0z" p-id="1528"></path><path d="M418.360889 434.972444a28.444444 28.444444 0 0 1 0 40.277334l-113.777778 113.777778a28.444444 28.444444 0 0 1-40.277333 0l-56.888889-56.888889a28.444444 28.444444 0 1 1 40.277333-40.277334L284.444444 528.668444l93.639112-93.696a28.444444 28.444444 0 0 1 40.277333 0z" p-id="1529"></path></svg>