<?xml version="1.0" standalone="no"?><!DOCTYPE svg PUBLIC "-//W3C//DTD SVG 1.1//EN" "http://www.w3.org/Graphics/SVG/1.1/DTD/svg11.dtd"><svg t="1734184436762" class="icon" viewBox="0 0 1024 1024" version="1.1" xmlns="http://www.w3.org/2000/svg" p-id="1350" xmlns:xlink="http://www.w3.org/1999/xlink" width="200" height="200"><path d="M142.222222 512v227.555556A142.222222 142.222222 0 0 0 284.444444 881.777778h455.111112a142.222222 142.222222 0 0 0 142.222222-142.222222V535.438222h56.888889V739.555556a199.111111 199.111111 0 0 1-199.111111 199.111111H284.444444A199.111111 199.111111 0 0 1 85.333333 739.555556V512h56.888889z" p-id="1351"></path><path d="M747.178667 164.579556C680.96 176.071111 593.863111 187.733333 512 187.733333c-132.551111 0-279.722667-30.72-329.728-41.984-6.769778-1.536-10.524444-0.341333-12.174222 0.739556C145.521778 162.417778 85.333333 213.333333 85.333333 341.333333c0 128 60.188444 178.972444 84.764445 194.844445 1.706667 1.137778 5.404444 2.275556 12.174222 0.796444 9.841778-2.275556 23.324444-5.233778 39.651556-8.533333l11.264 55.751111c-15.815111 3.242667-28.842667 6.087111-38.343112 8.248889-16.554667 3.754667-37.262222 3.413333-55.694222-8.533333C101.034667 559.331556 28.444444 491.52 28.444444 341.333333s72.590222-217.884444 110.705778-242.631111c18.432-11.946667 39.139556-12.231111 55.751111-8.476444 49.322667 11.207111 191.317333 40.618667 317.098667 40.618666 77.141333 0 160.654222-11.093333 225.393778-22.357333a1911.580444 1911.580444 0 0 0 107.121778-21.845333l1.479111-0.341334 0.341333-0.113777h0.113778L853.333333 113.777778l6.826667 27.591111h-0.113778l-0.455111 0.170667-1.649778 0.398222a1008.810667 1008.810667 0 0 1-29.582222 6.769778c-19.854222 4.323556-48.014222 10.069333-81.180444 15.872zM453.404444 496.753778C472.974222 495.616 492.600889 494.933333 512 494.933333c81.863111 0 168.96 11.662222 235.178667 23.153778a1970.858667 1970.858667 0 0 1 110.762666 22.641778l1.706667 0.398222 0.398222 0.113778h0.113778L853.333333 568.888889l-6.883555 27.591111h-0.113778l-0.341333-0.113778-1.479111-0.341333a1913.856 1913.856 0 0 0-107.121778-21.845333C672.654222 562.915556 589.141333 551.822222 512 551.822222c-18.090667 0-36.636444 0.568889-55.182222 1.706667l-3.413334-56.775111z" p-id="1352"></path><path d="M398.222222 184.888889a142.222222 142.222222 0 0 0-142.222222 142.222222v327.111111l68.266667-51.2a28.444444 28.444444 0 0 1 34.133333 0l68.266667 51.2V327.111111a199.111111 199.111111 0 0 1 199.111111-199.111111 28.444444 28.444444 0 0 1 0 56.888889 142.222222 142.222222 0 0 0-142.222222 142.222222v384a28.444444 28.444444 0 0 1-45.511112 22.755556L341.333333 661.333333 244.622222 733.866667a28.444444 28.444444 0 0 1-45.511111-22.755556V327.111111A199.111111 199.111111 0 0 1 398.222222 128a28.444444 28.444444 0 0 1 0 56.888889zM798.321778 193.137778c-18.204444 36.465778-30.321778 88.803556-30.321778 148.195555s12.117333 111.729778 30.321778 148.195556c19.057778 38.115556 40.163556 50.915556 55.011555 50.915555 14.791111 0 35.953778-12.743111 55.011556-50.915555 18.204444-36.465778 30.321778-88.803556 30.321778-148.195556s-12.117333-111.729778-30.321778-148.195555c-19.057778-38.115556-40.163556-50.915556-55.011556-50.915556-14.791111 0-35.953778 12.743111-55.011555 50.915556z m-50.858667-25.429334C769.536 123.505778 805.319111 85.333333 853.333333 85.333333c48.014222 0 83.797333 38.172444 105.870223 82.375111 22.983111 45.909333 36.352 107.349333 36.352 173.624889s-13.368889 127.715556-36.352 173.624889C937.130667 559.160889 901.347556 597.333333 853.333333 597.333333c-48.014222 0-83.797333-38.172444-105.870222-82.375111C724.48 469.048889 711.111111 407.608889 711.111111 341.333333s13.368889-127.715556 36.352-173.624889z" p-id="1353"></path><path d="M715.889778 312.888889a27.932444 27.932444 0 0 1 27.875555-28.444445H744.277333l1.308445-0.056888a618.837333 618.837333 0 0 1 65.422222 2.616888c16.156444 1.592889 35.612444 4.437333 49.493333 10.695112 5.916444 2.673778 19.057778 9.443556 23.950223 24.462222 6.030222 18.318222-4.266667 32.540444-10.979556 39.253333-32.426667 32.426667-34.190222 76.913778-24.462222 119.296a285.184 285.184 0 0 0 28.103111 72.476445l0.568889 0.910222v0.170666a28.444444 28.444444 0 0 1-48.753778 29.240889v-0.056889l-0.113778-0.170666-0.284444-0.455111-0.853334-1.479111a329.386667 329.386667 0 0 1-12.231111-24.234667 341.788444 341.788444 0 0 1-21.845333-63.601778c-9.898667-42.951111-12.629333-100.124444 20.309333-148.935111L744.903111 341.333333a28.956444 28.956444 0 0 1-29.013333-28.444444z" p-id="1354"></path></svg>