<?xml version="1.0" standalone="no"?><!DOCTYPE svg PUBLIC "-//W3C//DTD SVG 1.1//EN" "http://www.w3.org/Graphics/SVG/1.1/DTD/svg11.dtd"><svg t="1734184400962" class="icon" viewBox="0 0 1024 1024" version="1.1" xmlns="http://www.w3.org/2000/svg" p-id="1007" xmlns:xlink="http://www.w3.org/1999/xlink" width="200" height="200"><path d="M671.744 286.208a56.888889 56.888889 0 0 1-17.521778-40.96c0-19.911111-0.284444-29.127111-1.194666-36.238222A142.222222 142.222222 0 0 0 530.204444 86.471111a1619.228444 1619.228444 0 0 0-64.284444-1.137778l-7.964444-0.056889h-13.824a3564.316444 3564.316444 0 0 0-51.882667 0.682667 378.481778 378.481778 0 0 0-12.629333 0.568889A142.222222 142.222222 0 0 0 257.137778 208.952889a303.445333 303.445333 0 0 0-1.194667 36.238222 56.888889 56.888889 0 0 1-17.521778 40.96A311.808 311.808 0 0 0 142.222222 512c0 88.746667 36.864 168.789333 96.256 225.792a56.888889 56.888889 0 0 1 17.521778 40.96c0 19.911111 0.284444 29.127111 1.194667 36.238222A142.222222 142.222222 0 0 0 380.017778 937.528889c1.024 0.056889 4.892444 0.284444 12.344889 0.512 7.850667 0.227556 17.464889 0.341333 26.851555 0.455111l25.031111 0.227556h21.845334a3159.836444 3159.836444 0 0 0 51.882666-0.682667c7.452444-0.227556 11.320889-0.455111 12.344889-0.568889h0.284445a142.222222 142.222222 0 0 0 122.481777-122.424889c0.910222-7.111111 1.137778-16.270222 1.194667-36.238222a56.888889 56.888889 0 0 1 17.521778-40.96 313.116444 313.116444 0 0 0 79.018667-122.993778l53.703111 18.716445A370.062222 370.062222 0 0 1 711.111111 778.808889c0 19.228444-0.227556 32.199111-1.706667 43.576889a199.111111 199.111111 0 0 1-171.406222 171.406222C525.027556 995.555556 455.111111 995.555556 455.111111 995.555556s-69.916444 0-82.887111-1.706667a199.111111 199.111111 0 0 1-171.406222-171.406222c-1.479111-11.377778-1.706667-24.348444-1.706667-43.633778A368.696889 368.696889 0 0 1 85.333333 512c0-104.846222 43.633778-199.566222 113.777778-266.808889 0-19.342222 0.227556-32.256 1.706667-43.633778A199.111111 199.111111 0 0 1 372.224 30.151111C385.194667 28.444444 455.111111 28.444444 455.111111 28.444444s69.916444 0 82.887111 1.706667a199.111111 199.111111 0 0 1 171.406222 171.406222c1.479111 11.377778 1.706667 24.291556 1.706667 43.633778a370.062222 370.062222 0 0 1 93.354667 145.294222l-53.703111 18.716445a313.116444 313.116444 0 0 0-79.075556-122.993778z m132.721778 104.277333l-53.703111 18.716445A310.727111 310.727111 0 0 1 768 512a314.140444 314.140444 0 0 1-17.237333 102.798222l53.703111 18.716445A366.762667 366.762667 0 0 0 824.888889 512a370.915556 370.915556 0 0 0-20.423111-121.514667z" p-id="1008"></path><path d="M455.111111 199.111111a312.888889 312.888889 0 1 0 0 625.777778 312.888889 312.888889 0 0 0 0-625.777778zM85.333333 512a369.777778 369.777778 0 1 1 739.555556 0 369.777778 369.777778 0 0 1-739.555556 0z" p-id="1009"></path><path d="M483.555556 341.333333a28.444444 28.444444 0 0 0-56.888889 0v170.666667a28.444444 28.444444 0 0 0 28.444444 28.444444h170.666667a28.444444 28.444444 0 0 0 0-56.888888H483.555556V341.333333zM853.333333 426.666667a28.444444 28.444444 0 0 1 56.888889 0v170.666666a28.444444 28.444444 0 0 1-56.888889 0v-170.666666z" p-id="1010"></path></svg>