<?xml version="1.0" standalone="no"?><!DOCTYPE svg PUBLIC "-//W3C//DTD SVG 1.1//EN" "http://www.w3.org/Graphics/SVG/1.1/DTD/svg11.dtd"><svg t="1734184470137" class="icon" viewBox="0 0 1024 1024" version="1.1" xmlns="http://www.w3.org/2000/svg" p-id="4297" xmlns:xlink="http://www.w3.org/1999/xlink" width="200" height="200"><path d="M512 967.111111h312.888889a85.333333 85.333333 0 0 0 0-170.666667H512v56.888889h312.888889a28.444444 28.444444 0 0 1 0 56.888889H512v56.888889zM512 227.555556h312.888889a85.333333 85.333333 0 0 0 0-170.666667H512v56.888889h312.888889a28.444444 28.444444 0 0 1 0 56.888889H512v56.888889zM512 967.111111H199.111111a85.333333 85.333333 0 0 1 0-170.666667H512v56.888889H199.111111a28.444444 28.444444 0 0 0 0 56.888889H512v56.888889zM512 227.555556H199.111111a85.333333 85.333333 0 1 1 0-170.666667H512v56.888889H199.111111a28.444444 28.444444 0 0 0 0 56.888889H512v56.888889z" p-id="4298"></path><path d="M512 853.333333h284.444444v-113.777777a283.363556 283.363556 0 0 0-113.777777-227.555556 283.363556 283.363556 0 0 0 113.777777-227.555556V170.666667H512v56.888889h227.555556v56.888888a227.100444 227.100444 0 0 1-91.022223 182.044445 56.888889 56.888889 0 0 0 0 91.022222A227.100444 227.100444 0 0 1 739.555556 739.555556v56.888888H512v56.888889zM512 853.333333H227.555556v-113.777777a283.363556 283.363556 0 0 1 113.777777-227.555556 283.363556 283.363556 0 0 1-113.777777-227.555556V170.666667h284.444444v56.888889H284.444444v56.888888c0 74.410667 35.669333 140.458667 91.022223 182.044445a56.888889 56.888889 0 0 1 0 91.022222A227.100444 227.100444 0 0 0 284.444444 739.555556v56.888888h227.555556v56.888889z" p-id="4299"></path><path d="M512 455.111111a169.870222 169.870222 0 0 1-98.816-31.516444C401.180444 415.061333 408.234667 398.222222 422.968889 398.222222h178.062222c14.791111 0 21.788444 16.839111 9.784889 25.372445C582.940444 443.448889 548.807111 455.111111 512 455.111111z" p-id="4300"></path><path d="M341.333333 682.666667m28.444445 0l284.444444 0q28.444444 0 28.444445 28.444444l0 0q0 28.444444-28.444445 28.444445l-284.444444 0q-28.444444 0-28.444445-28.444445l0 0q0-28.444444 28.444445-28.444444Z" p-id="4301"></path><path d="M455.111111 568.888889m28.444445 0l56.888888 0q28.444444 0 28.444445 28.444444l0 0q0 28.444444-28.444445 28.444445l-56.888888 0q-28.444444 0-28.444445-28.444445l0 0q0-28.444444 28.444445-28.444444Z" p-id="4302"></path></svg>