<?xml version="1.0" standalone="no"?><!DOCTYPE svg PUBLIC "-//W3C//DTD SVG 1.1//EN" "http://www.w3.org/Graphics/SVG/1.1/DTD/svg11.dtd"><svg t="1734184473813" class="icon" viewBox="0 0 1024 1024" version="1.1" xmlns="http://www.w3.org/2000/svg" p-id="4645" xmlns:xlink="http://www.w3.org/1999/xlink" width="200" height="200"><path d="M113.777778 199.111111a28.444444 28.444444 0 0 1 28.444444 28.444445v113.777777a28.444444 28.444444 0 0 1-56.888889 0V227.555556a28.444444 28.444444 0 0 1 28.444445-28.444445z m796.444444 0a28.444444 28.444444 0 0 1 28.444445 28.444445v113.777777a28.444444 28.444444 0 0 1-56.888889 0V227.555556a28.444444 28.444444 0 0 1 28.444444-28.444445zM398.222222 540.444444a28.444444 28.444444 0 0 1 28.444445 28.444445v170.666667a28.444444 28.444444 0 0 1-56.888889 0v-170.666667a28.444444 28.444444 0 0 1 28.444444-28.444445zM625.777778 540.444444a28.444444 28.444444 0 0 0-28.444445 28.444445v170.666667a28.444444 28.444444 0 0 0 56.888889 0v-170.666667a28.444444 28.444444 0 0 0-28.444444-28.444445z" p-id="4646"></path><path d="M142.222222 369.777778A28.444444 28.444444 0 0 1 170.666667 398.222222v426.666667c0 3.925333 2.048 11.548444 15.189333 22.186667 13.084444 10.524444 34.417778 21.447111 64.625778 31.175111C310.727111 897.592889 399.928889 910.222222 512 910.222222c112.071111 0 201.272889-12.572444 261.518222-31.971555 30.208-9.671111 51.484444-20.650667 64.625778-31.232 13.141333-10.581333 15.189333-18.204444 15.189333-22.129778V398.222222a28.444444 28.444444 0 0 1 56.888889 0v426.666667c0 27.477333-15.758222 49.834667-36.408889 66.446222-20.593778 16.611556-49.095111 30.208-82.887111 41.073778-67.754667 21.788444-163.441778 34.702222-278.926222 34.702222-115.484444 0-211.171556-12.913778-278.926222-34.702222-33.792-10.808889-62.293333-24.462222-82.944-41.073778C129.536 874.723556 113.777778 852.366222 113.777778 824.888889V398.222222a28.444444 28.444444 0 0 1 28.444444-28.444444z" p-id="4647"></path><path d="M142.222222 340.764444a28.444444 28.444444 0 0 0-56.888889 0.568889c0 17.294222 8.078222 31.345778 18.318223 41.699556 9.955556 10.069333 22.926222 17.806222 36.522666 24.007111 27.306667 12.515556 63.943111 21.674667 103.879111 28.558222C324.437333 449.422222 425.756444 455.111111 512 455.111111s187.562667-5.688889 267.946667-19.512889c39.936-6.883556 76.515556-16.099556 103.879111-28.558222 13.653333-6.200889 26.567111-13.937778 36.522666-24.007111 10.24-10.353778 18.318222-24.405333 18.318223-41.699556a28.444444 28.444444 0 0 0-56.888889-0.568889 12.344889 12.344889 0 0 1-1.877334 2.275556 68.266667 68.266667 0 0 1-19.683555 12.231111c-20.707556 9.443556-51.655111 17.635556-89.884445 24.234667C694.158222 392.590222 596.366222 398.222222 512 398.222222c-84.423111 0-182.215111-5.575111-258.275556-18.716444-38.286222-6.599111-69.233778-14.791111-89.884444-24.234667a68.266667 68.266667 0 0 1-19.740444-12.231111 12.288 12.288 0 0 1-1.877334-2.275556z m739.726222-0.341333l-0.113777 0.170667 0.113777-0.170667z m-739.783111 0.170667l-0.113777-0.170667 0.113777 0.170667zM312.888889 113.777778a28.444444 28.444444 0 1 0 0 56.888889 28.444444 28.444444 0 0 0 0-56.888889zM227.555556 142.222222a85.333333 85.333333 0 1 1 170.666666 0 85.333333 85.333333 0 0 1-170.666666 0z" p-id="4648"></path><path d="M426.666667 142.222222c-16.213333 0-31.630222 3.413333-45.511111 9.443556l-22.755556-52.110222a170.666667 170.666667 0 0 1 235.52 190.577777l-55.751111-11.377777A113.777778 113.777778 0 0 0 426.666667 142.222222zM322.332444 210.488889a113.265778 113.265778 0 0 0-7.168 68.266667l-55.751111 11.377777a171.349333 171.349333 0 0 1 10.808889-102.4l52.110222 22.755556z" p-id="4649"></path><path d="M661.617778 203.320889a2517.162667 2517.162667 0 0 0-121.457778-4.096l0.568889-56.888889c43.633778 0.455111 85.447111 1.877333 124.188444 4.209778l-3.299555 56.775111zM170.552889 227.555556c24.007111-6.200889 57.571556-11.889778 98.872889-16.497778l-6.371556-56.547556c-47.047111 5.290667-86.983111 12.174222-115.712 20.423111a160.426667 160.426667 0 0 0-37.432889 15.075556c-8.135111 4.892444-24.576 16.668444-24.576 37.546667 0 18.318222 12.743111 29.582222 20.252445 34.759111 8.533333 5.973333 19.285333 10.581333 30.378666 14.336 22.584889 7.623111 53.76 14.051556 90.453334 19.285333C300.145778 306.460444 401.066667 312.888889 512 312.888889c110.876444 0 211.854222-6.428444 285.582222-16.952889 36.693333-5.233778 67.868444-11.662222 90.453334-19.342222 11.093333-3.697778 21.845333-8.305778 30.378666-14.222222 7.509333-5.233778 20.252444-16.497778 20.252445-34.816 0-20.195556-15.36-31.857778-23.324445-36.864-9.728-6.030222-22.186667-10.808889-35.441778-14.791112-27.022222-8.135111-64.398222-14.848-108.487111-20.138666l-6.826666 56.433778c36.864 4.437333 66.901333 9.671111 88.860444 15.36-16.611556 4.266667-38.058667 8.362667-63.886222 12.060444C719.189333 249.742222 621.056 256 512 256c-109.056 0-207.189333-6.314667-277.560889-16.384-25.827556-3.697778-47.274667-7.793778-63.886222-12.060444z m-33.393778 12.629333s0.170667-0.227556 0.682667-0.568889a2.901333 2.901333 0 0 1-0.682667 0.568889z m749.624889-0.056889l-0.568889-0.455111c0.455111 0.284444 0.568889 0.455111 0.568889 0.455111z m-0.512-24.746667a2.275556 2.275556 0 0 1 0.341333-0.284444l-0.341333 0.284444z m-748.544 0a1.934222 1.934222 0 0 1-0.341333-0.284444l0.341333 0.284444z" p-id="4650"></path><path d="M711.111111 170.666667a28.444444 28.444444 0 1 0 0 56.888889 28.444444 28.444444 0 0 0 0-56.888889z m-85.333333 28.444444a85.333333 85.333333 0 1 1 170.666666 0 85.333333 85.333333 0 0 1-170.666666 0z" p-id="4651"></path></svg>