<?xml version="1.0" standalone="no"?><!DOCTYPE svg PUBLIC "-//W3C//DTD SVG 1.1//EN" "http://www.w3.org/Graphics/SVG/1.1/DTD/svg11.dtd"><svg t="1734184445485" class="icon" viewBox="0 0 1024 1024" version="1.1" xmlns="http://www.w3.org/2000/svg" p-id="1872" xmlns:xlink="http://www.w3.org/1999/xlink" width="200" height="200"><path d="M56.888889 512a199.111111 199.111111 0 0 1 199.111111-199.111111h512A199.111111 199.111111 0 0 1 967.111111 512v256a199.111111 199.111111 0 0 1-199.111111 199.111111h-512A199.111111 199.111111 0 0 1 56.888889 768V512z m199.111111-142.222222A142.222222 142.222222 0 0 0 113.777778 512v256A142.222222 142.222222 0 0 0 256 910.222222h512a142.222222 142.222222 0 0 0 142.222222-142.222222V512a142.222222 142.222222 0 0 0-142.222222-142.222222h-512z" p-id="1873"></path><path d="M483.555556 625.777778a170.666667 170.666667 0 0 1 170.666666-170.666667H910.222222v56.888889h-256a113.777778 113.777778 0 1 0 0 227.555556H910.222222v56.888888h-256a170.666667 170.666667 0 0 1-170.666666-170.666666zM512 113.777778a227.555556 227.555556 0 0 0-227.555556 227.555555H227.555556a284.444444 284.444444 0 0 1 568.888888 0h-56.888888a227.555556 227.555556 0 0 0-227.555556-227.555555z" p-id="1874"></path><path d="M227.555556 540.444444a28.444444 28.444444 0 0 1 56.888888 0v170.666667a28.444444 28.444444 0 0 1-56.888888 0v-170.666667z" p-id="1875"></path><path d="M654.222222 597.333333a28.444444 28.444444 0 1 0 0 56.888889 28.444444 28.444444 0 0 0 0-56.888889zM568.888889 625.777778a85.333333 85.333333 0 1 1 170.666667 0 85.333333 85.333333 0 0 1-170.666667 0zM142.222222 113.777778a28.444444 28.444444 0 1 0 0 56.888889 28.444444 28.444444 0 0 0 0-56.888889zM56.888889 142.222222a85.333333 85.333333 0 1 1 170.666667 0 85.333333 85.333333 0 0 1-170.666667 0z" p-id="1876"></path></svg>