<?xml version="1.0" standalone="no"?><!DOCTYPE svg PUBLIC "-//W3C//DTD SVG 1.1//EN" "http://www.w3.org/Graphics/SVG/1.1/DTD/svg11.dtd"><svg t="1734184458121" class="icon" viewBox="0 0 1024 1024" version="1.1" xmlns="http://www.w3.org/2000/svg" p-id="3083" xmlns:xlink="http://www.w3.org/1999/xlink" width="200" height="200"><path d="M967.111111 512c0-27.989333-19.000889-48.924444-39.253333-63.260444a244.736 244.736 0 0 0-50.460445-26.339556c2.787556-7.509333 4.380444-15.587556 4.380445-24.177778 0-34.019556-24.746667-59.392-51.996445-76.743111a298.325333 298.325333 0 0 0-60.984889-28.444444 107.52 107.52 0 0 0 13.880889-38.286223 167.879111 167.879111 0 0 0-1.024-61.212444c-8.476444-42.382222-34.872889-88.405333-89.998222-106.723556A28.444444 28.444444 0 0 0 654.222222 113.777778c0 26.965333-17.749333 47.786667-49.322666 63.374222A229.944889 229.944889 0 0 1 512 199.111111c-64.455111 0-123.790222 6.485333-167.822222 17.521778-21.788444 5.461333-41.415111 12.401778-56.32 21.162667-12.970667 7.68-31.857778 22.528-31.857778 46.648888 0 2.844444 0.284444 5.461333 0.739556 7.964445a294.172444 294.172444 0 0 0-65.365334 30.890667C165.432889 340.423111 142.222222 365.283556 142.222222 398.222222c0 8.590222 1.592889 16.668444 4.380445 24.177778-19.512889 7.793778-36.693333 16.497778-50.517334 26.339556C75.889778 463.075556 56.888889 484.010667 56.888889 512h56.888889s0.284444-6.257778 15.189333-16.839111c12.401778-8.817778 31.175111-17.863111 56.149333-26.339556h0.113778c23.608889 17.123556 55.921778 31.118222 92.956445 42.040889a28.444444 28.444444 0 0 0 7.395555 1.137778h1.251556a28.444444 28.444444 0 0 0 7.395555-55.751111c-33.792-9.898667-59.278222-21.617778-75.662222-33.507556-17.066667-12.288-19.456-20.992-19.456-24.519111 0-3.868444 3.015111-13.824 23.665778-27.477333 17.92-11.832889 44.544-23.153778 78.791111-32.654222 6.257778 2.844444 12.913778 5.347556 19.797333 7.623111 31.857778 10.524444 74.865778 17.976889 123.050667 21.617778a28.444444 28.444444 0 0 0 4.266667-56.775112c-45.568-3.413333-83.626667-10.296889-109.397334-18.830222A138.922667 138.922667 0 0 1 321.080889 284.444444c8.362667-4.152889 20.650667-8.533333 36.920889-12.629333C396.344889 262.200889 450.787556 256 512 256c30.606222 0 77.710222-7.850667 118.101333-27.875556 28.899556-14.222222 58.026667-36.864 72.135111-69.973333 12.515556 12.288 20.081778 28.728889 23.665778 46.535111 2.844444 14.392889 2.844444 28.558222 0.739556 40.163556-2.161778 12.401778-5.973333 18.204444-7.224889 19.456-10.183111 10.24-32.768 23.665778-72.305778 33.848889a28.444444 28.444444 0 1 0 14.222222 55.125333c19.228444-5.006222 36.408889-10.979556 51.370667-17.806222 37.489778 9.671111 66.844444 21.447111 86.528 34.019555 22.357333 14.222222 25.656889 24.689778 25.656889 28.728889 0 3.527111-2.389333 12.231111-19.399111 24.519111-16.440889 11.889778-41.927111 23.608889-75.719111 33.564445a28.444444 28.444444 0 0 0 7.395555 55.694222h1.194667a28.558222 28.558222 0 0 0 7.395555-1.137778c37.091556-10.922667 69.404444-24.917333 93.013334-41.984l0.113778-0.056889c25.031111 8.533333 43.747556 17.521778 56.092444 26.339556C909.937778 505.742222 910.222222 512 910.222222 512h56.888889z" p-id="3084"></path><path d="M56.888889 512h56.888889v256c0 11.776 1.479111 24.917333 7.907555 38.456889 6.314667 13.255111 18.375111 28.899556 42.723556 44.088889C214.357333 881.777778 314.368 910.222222 512 910.222222s297.642667-28.444444 347.591111-59.676444c24.348444-15.189333 36.408889-30.833778 42.723556-44.088889A87.04 87.04 0 0 0 910.222222 768V512h56.888889v256c0 16.668444-2.104889 39.082667-13.425778 62.919111-11.434667 24.007111-31.402667 47.502222-63.943111 67.868445C825.912889 938.666667 712.590222 967.111111 512 967.111111s-313.912889-28.444444-377.742222-68.323555c-32.540444-20.366222-52.508444-43.804444-63.943111-67.868445A143.758222 143.758222 0 0 1 56.888889 768V512z" p-id="3085"></path><path d="M887.409778 594.318222C824.888889 625.607111 713.329778 654.222222 512 654.222222c-201.272889 0-312.888889-28.672-375.409778-59.904-31.402667-15.701333-50.688-32.256-62.464-46.307555a96.028444 96.028444 0 0 1-12.231111-18.375111 63.658667 63.658667 0 0 1-3.640889-8.988445l-0.284444-0.967111-0.113778-0.398222-0.056889-0.227556v-0.056889S57.685333 518.826667 85.333333 512s27.591111-6.940444 27.591111-6.997333v-0.056889l-0.056888-0.170667-0.113778-0.284444-0.113778-0.512a9.500444 9.500444 0 0 0-0.170667-0.512l0.284445 0.682666a39.822222 39.822222 0 0 0 5.12 7.395556c6.030222 7.281778 18.773333 19.171556 44.202666 31.857778 51.313778 25.713778 153.031111 53.930667 349.923556 53.930666 196.949333 0 298.666667-28.216889 349.923556-53.873777 25.486222-12.743111 38.172444-24.632889 44.202666-31.857778a39.651556 39.651556 0 0 0 5.12-7.395556c0.284444-0.568889 0.341333-0.853333 0.284445-0.739555l-0.170667 0.568889-0.113778 0.455111-0.113778 0.284444v0.227556s-0.056889 0.113778 27.534223 6.997333 27.591111 6.940444 27.591111 6.997333v0.056889l-0.113778 0.227556-0.113778 0.398222-0.284444 0.967111a51.427556 51.427556 0 0 1-3.640889 8.988445c-2.503111 5.063111-6.428444 11.377778-12.231111 18.375111-11.776 14.051556-31.061333 30.606222-62.464 46.307555z" p-id="3086"></path><path d="M887.409778 736.540444C824.888889 767.829333 713.329778 796.444444 512 796.444444c-201.272889 0-312.888889-28.672-375.409778-59.904-31.402667-15.701333-50.688-32.256-62.464-46.307555a95.971556 95.971556 0 0 1-12.231111-18.375111 63.772444 63.772444 0 0 1-3.640889-8.988445l-0.284444-0.967111-0.113778-0.398222-0.056889-0.227556v-0.056888s-0.056889-0.113778 27.534222-6.997334 27.591111-6.940444 27.591111-6.997333v-0.056889l-0.056888-0.170667-0.113778-0.284444-0.113778-0.512a10.524444 10.524444 0 0 0-0.170667-0.512l0.284445 0.682667c0.568889 1.137778 2.048 3.754667 5.12 7.395555 6.030222 7.281778 18.773333 19.171556 44.202666 31.857778C213.333333 711.395556 315.107556 739.555556 512 739.555556c196.949333 0 298.666667-28.216889 349.923556-53.873778 25.486222-12.743111 38.172444-24.632889 44.202666-31.857778a39.651556 39.651556 0 0 0 5.12-7.395556c0.284444-0.568889 0.341333-0.853333 0.284445-0.739555l-0.170667 0.568889-0.113778 0.455111-0.113778 0.284444v0.227556c0 0.056889-0.056889 0.113778 27.534223 6.997333s27.591111 6.940444 27.591111 6.997334v0.113777l-0.113778 0.170667-0.113778 0.398222-0.284444 0.967111a50.744889 50.744889 0 0 1-3.640889 8.988445c-2.503111 5.063111-6.428444 11.377778-12.231111 18.375111-11.776 14.051556-31.061333 30.606222-62.464 46.307555zM170.666667 113.777778a28.444444 28.444444 0 1 0 0 56.888889 28.444444 28.444444 0 0 0 0-56.888889z m-85.333334 28.444444a85.333333 85.333333 0 1 1 170.666667 0 85.333333 85.333333 0 0 1-170.666667 0z" p-id="3087"></path></svg>