<?xml version="1.0" standalone="no"?><!DOCTYPE svg PUBLIC "-//W3C//DTD SVG 1.1//EN" "http://www.w3.org/Graphics/SVG/1.1/DTD/svg11.dtd"><svg t="1734184467019" class="icon" viewBox="0 0 1024 1024" version="1.1" xmlns="http://www.w3.org/2000/svg" p-id="3948" xmlns:xlink="http://www.w3.org/1999/xlink" width="200" height="200"><path d="M199.111111 142.222222a85.333333 85.333333 0 1 1 170.666667 0v145.521778a142.222222 142.222222 0 0 0 53.361778 111.047111l14.108444 11.320889A199.111111 199.111111 0 0 1 512 565.589333v302.762667c0 12.515556-2.901333 30.606222-17.408 44.373333C470.129778 935.822222 413.127111 967.111111 284.444444 967.111111s-185.685333-31.288889-210.147555-54.385778c-14.506667-13.767111-17.408-31.857778-17.408-44.373333V565.589333a199.111111 199.111111 0 0 1 74.752-155.477333l14.108444-11.320889A142.222222 142.222222 0 0 0 199.111111 287.744V142.222222zM284.444444 113.777778a28.444444 28.444444 0 0 0-28.444444 28.444444v145.521778a199.111111 199.111111 0 0 1-74.752 155.477333l-14.108444 11.320889A142.222222 142.222222 0 0 0 113.777778 565.589333v302.762667c0 1.877333 0.170667 3.072 0.341333 3.697778 11.377778 10.24 52.792889 38.172444 170.325333 38.172444 117.532444 0 159.004444-27.875556 170.325334-38.172444A15.872 15.872 0 0 0 455.111111 868.352V565.589333a142.222222 142.222222 0 0 0-53.361778-111.047111l-14.108444-11.320889A199.111111 199.111111 0 0 1 312.888889 287.744V142.222222A28.444444 28.444444 0 0 0 284.444444 113.777778z" p-id="3949"></path><path d="M199.111111 227.555556a28.444444 28.444444 0 0 1 28.444445-28.444445h113.777777a28.444444 28.444444 0 0 1 0 56.888889H227.555556a28.444444 28.444444 0 0 1-28.444445-28.444444zM625.777778 256v206.677333c0 39.992889 18.830222 77.653333 50.858666 101.660445a184.035556 184.035556 0 0 1 71.736889 121.173333l3.299556 23.153778a199.111111 199.111111 0 0 1-87.495111 194.389333c23.438222 3.982222 56.888889 7.168 103.822222 7.168s80.384-3.185778 103.822222-7.168a199.111111 199.111111 0 0 1-87.495111-194.389333l3.299556-23.096889a184.035556 184.035556 0 0 1 71.736889-121.173333A127.146667 127.146667 0 0 0 910.222222 462.620444V256h56.888889v206.677333c0 57.912889-27.306667 112.469333-73.614222 147.171556a127.089778 127.089778 0 0 0-49.550222 83.740444l-3.299556 23.153778a142.222222 142.222222 0 0 0 67.584 142.051556l45.056 27.022222a28.444444 28.444444 0 0 1 5.518222 44.544L938.666667 910.222222l20.081777 20.138667-0.056888 0.056889-0.113778 0.113778-0.227556 0.227555-0.455111 0.398222a34.702222 34.702222 0 0 1-3.868444 3.185778c-2.161778 1.592889-4.892444 3.413333-8.419556 5.290667a152.917333 152.917333 0 0 1-31.118222 12.174222c-28.16 8.021333-73.614222 15.303111-146.488889 15.303111-72.817778 0-118.328889-7.281778-146.488889-15.36a152.917333 152.917333 0 0 1-31.118222-12.117333 72.704 72.704 0 0 1-12.288-8.476445l-0.455111-0.398222-0.227556-0.227555-0.113778-0.113778c-0.056889-0.056889-0.113778-0.056889 20.024889-20.195556l-20.138666 20.138667a28.444444 28.444444 0 0 1 5.518222-44.544l45.056-27.022222a142.222222 142.222222 0 0 0 67.584-142.051556l-3.299556-23.153778a127.089778 127.089778 0 0 0-49.550222-83.740444A184.035556 184.035556 0 0 1 568.888889 462.677333V256h56.888889z" p-id="3950"></path><path d="M617.415111 378.083556l-0.113778-0.113778 0.170667 0.113778 1.251556 1.137777c1.308444 1.137778 3.413333 2.901333 6.371555 5.12a182.044444 182.044444 0 0 0 27.648 16.896c24.917333 12.515556 63.260444 25.429333 115.256889 25.429334 51.996444 0 90.339556-12.970667 115.256889-25.429334a182.044444 182.044444 0 0 0 27.648-16.896 108.714667 108.714667 0 0 0 7.623111-6.257777l0.170667-0.113778a28.444444 28.444444 0 0 1 40.106666 40.391111L938.666667 398.222222l20.081777 20.138667-0.056888 0.056889-0.113778 0.113778-0.284445 0.284444-0.853333 0.796444a121.230222 121.230222 0 0 1-12.344889 10.24 238.364444 238.364444 0 0 1-36.408889 22.243556c-31.857778 15.928889-78.904889 31.459556-140.686222 31.459556-61.781333 0-108.771556-15.473778-140.743111-31.459556a238.364444 238.364444 0 0 1-36.352-22.186667 166.570667 166.570667 0 0 1-12.344889-10.296889l-0.853333-0.796444-0.284445-0.284444-0.113778-0.113778-0.056888-0.056889L597.333333 398.222222l-20.138666 20.138667a28.444444 28.444444 0 0 1 40.106666-40.391111m0.113778 0.113778zM768 341.333333c49.322667 0 95.175111-6.599111 129.706667-18.147555 17.066667-5.688889 32.995556-13.084444 45.169777-22.698667 11.832889-9.386667 24.234667-24.177778 24.234667-44.487111 0-20.309333-12.401778-35.100444-24.234667-44.487111a150.471111 150.471111 0 0 0-45.226666-22.755556C863.175111 177.322667 817.322667 170.666667 768 170.666667v56.888889c44.942222 0 84.423111 6.087111 111.672889 15.189333 13.596444 4.551111 22.584889 9.272889 27.704889 13.255111a97.28 97.28 0 0 1-27.704889 13.255111c-27.306667 9.102222-66.730667 15.189333-111.672889 15.189333v56.888889zM768 341.333333c-49.322667 0-95.175111-6.599111-129.706667-18.147555-17.066667-5.688889-32.995556-13.084444-45.169777-22.698667C581.233778 291.100444 568.888889 276.309333 568.888889 256c0-20.309333 12.344889-35.100444 24.234667-44.487111 12.231111-9.614222 28.103111-17.066667 45.226666-22.755556C672.824889 177.322667 718.677333 170.666667 768 170.666667v56.888889c-44.942222 0-84.423111 6.087111-111.672889 15.189333a97.28 97.28 0 0 0-27.704889 13.255111c5.12 3.982222 14.108444 8.704 27.704889 13.255111 27.306667 9.102222 66.730667 15.189333 111.672889 15.189333v56.888889zM246.897778 845.767111c-14.506667 14.506667-35.953778 36.010667-76.231111 36.010667a28.444444 28.444444 0 0 1 0-56.888889c15.928889 0 22.869333-6.200889 36.750222-20.138667l0.796444-0.739555c14.506667-14.506667 35.953778-36.010667 76.231111-36.010667 40.277333 0 61.724444 21.504 76.231112 36.010667l0.796444 0.739555c13.880889 13.937778 20.821333 20.138667 36.750222 20.138667a28.444444 28.444444 0 0 1 0 56.888889c-40.277333 0-61.724444-21.504-76.231111-36.010667l-0.796444-0.739555C307.313778 831.089778 300.373333 824.888889 284.444444 824.888889s-22.869333 6.200889-36.750222 20.138667l-0.796444 0.739555zM190.122667 519.736889a28.444444 28.444444 0 0 0-39.594667 40.846222L170.666667 540.444444l-20.081778 20.138667 0.113778 0.113778 0.113777 0.113778 0.284445 0.284444 0.796444 0.739556c0.568889 0.512 1.251556 1.137778 2.104889 1.763555 1.649778 1.422222 3.868444 3.072 6.656 4.949334 5.688889 3.754667 13.653333 8.248889 24.348445 12.515555 21.504 8.590222 53.589333 16.270222 99.441777 16.270222s77.937778-7.68 99.441778-16.270222c10.752-4.266667 18.716444-8.760889 24.348445-12.515555a82.944 82.944 0 0 0 8.760889-6.712889l0.796444-0.739556 0.284444-0.284444 0.113778-0.113778 0.056889-0.056889h0.056889L398.222222 540.444444l20.138667 20.138667a28.444444 28.444444 0 0 0-39.594667-40.846222 76.288 76.288 0 0 1-15.928889 8.533333c-14.108444 5.632-38.912 12.174222-78.392889 12.174222-39.480889 0-64.284444-6.542222-78.336-12.174222a76.288 76.288 0 0 1-15.928888-8.533333z" p-id="3951"></path><path d="M597.333333 113.777778a113.777778 113.777778 0 1 0 0 227.555555 28.444444 28.444444 0 0 1 0 56.888889 170.666667 170.666667 0 1 1 156.444445-102.4 28.444444 28.444444 0 0 1-52.110222-22.755555A113.777778 113.777778 0 0 0 597.333333 113.777778z" p-id="3952"></path></svg>